<?xml version="1.0" encoding="utf-8"?>
<!-- Generator: Adobe Illustrator 19.0.0, SVG Export Plug-In . SVG Version: 6.00 Build 0)  -->
<svg version="1.1" id="Layer_2" xmlns="http://www.w3.org/2000/svg" xmlns:xlink="http://www.w3.org/1999/xlink" x="0px" y="0px"
	 viewBox="0 0 612 792" style="enable-background:new 0 0 612 792;" xml:space="preserve">
<style type="text/css">
	.st0{stroke:#000000;stroke-width:4;stroke-miterlimit:10;}
</style>
<ellipse id="XMLID_4_" class="st0" cx="297.3" cy="412.2" rx="192.3" ry="192.2"/>
<g id="XMLID_7_">
	<g id="XMLID_25_">
		<path id="XMLID_29_" d="M196.4,516.7c0.5-40.9,1-81.7,1.5-122.6c0.1-5.8,0.1-11.6,0.2-17.4c0-3.2-5-3.2-5,0
			c-0.5,40.9-1,81.7-1.5,122.6c-0.1,5.8-0.1,11.6-0.2,17.4C191.4,519.9,196.4,519.9,196.4,516.7L196.4,516.7z"/>
	</g>
</g>
<path id="XMLID_5_For_Hide"  class="st0" d="M230,290.9c0,0,44.6-110.4,183.6-110.7c0,0,113.3-5,176,114.3H367.5L355,250.7l-104-3.5l4.4,5.4
	l-13,71L131,321.9z"/>

<path y='100px' id="XMLID_5_For_Hide_2"  class="st0"  d="M122.3,455c0,0,14.7,119.6,149.9,141.9c18.2,3,42.6,1.4,60.7-1.9c45.8-8.1,106.7-40.7,146-134.7"/>
<g id="XMLID_8_">
	<g id="XMLID_19_">
		<path id="XMLID_23_" d="M150.8,461.4c0-23.3,0-46.7,0-70c0-3.2-5-3.2-5,0c0,23.3,0,46.7,0,70C145.8,464.6,150.8,464.6,150.8,461.4
			L150.8,461.4z"/>
	</g>
</g>

<style>
	
	#XMLID_5_For_Hide{
		transform: rotate(15deg);
		<!-- display: none; -->
		stroke:none;
	}

	#XMLID_5_For_Hide_2{
		<!-- transform: rotate(15deg); -->
		<!-- display: none; -->
		stroke:none;
	}

	.text{
		font-size:40px;
		letter-spacing: 8px;
	}

	.text2{
		font-size:17px;
		letter-spacing: 8px;
	}
</style>

<text x='50' y='100' width="500">
      <textPath y='60' alignment-baseline="top" font-family="American Typewriter, serif" fill='black' class='text' id='text1' xlink:href="#XMLID_5_For_Hide">
        ALABAMA
      </textPath>
    </text>	
    <text x='50' y='100' width="500">
      <textPath y='120' alignment-baseline="top" font-family="American Typewriter, serif" fill='black' class='text2' id='text2' xlink:href="#XMLID_5_For_Hide_2">
        WE DARE DEFEND OUR RIGHTS
      </textPath>
    </text>	
<g id="XMLID_6_">
	<g id="XMLID_37_">
		<g id="XMLID_41_">
			<path id="XMLID_42_" d="M202.9,418.3c0-0.3,1.2-0.3,3.2-0.3c0.5,0,1.1,0,1.7-0.1c0.6-0.1,1.3-0.1,2-0.2c0.3-0.1,0.7-0.1,1.1-0.2
				c0.3-0.1,0.7-0.2,1-0.4c0.3-0.2,0.7-0.3,0.9-0.5c0.1-0.1,0.3-0.2,0.4-0.3l0.1-0.2l0.1-0.1c0,0,0-0.2,0.1-0.2
				c0.8-0.8,1.3-1.5,1.3-2.1c0-0.2,0-0.3,0-0.5c0,0,0,0,0.1,0l0.2,0l0.3,0c0.2,0,0.4,0,0.6,0c0.1,0,0.2,0,0.4-0.1l0.5-0.1
				c0.5,0.3,1,0.8,1.6,1.1c0.3,0.2,0.6,0.3,0.8,0.5l0.5,0.3c0.4,0.2,0.7,0.3,1.1,0.5c0.4,0.2,0.7,0.3,1.1,0.4
				c1.5,0.5,3.2,0.7,4.8,0.6c3.3-0.3,6.8-2.2,9.6-5.3c0.7-0.8,1.4-1.6,1.9-2.4c0.6-0.9,1.1-1.9,1.5-2.9c0.9-1.9,1.2-4,0.7-5.5
				c-0.5-1.6-2-3-4.1-4c-1-0.5-2.2-0.9-3.4-1.3l-0.4-0.1l-0.7-0.2c-0.7-0.1-1.3-0.3-2-0.4c-1.4-0.2-2.9-0.4-4.4-0.5
				c0.5-1,0.9-2,1.4-3c0.5-1,0.8-1.9,1.3-2.9l0.3-0.7c0.1-0.2,0.1-0.3,0.1-0.4l0.2-0.7c0.2-0.5,0.2-1,0.4-1.4
				c0.4-1.9,0.4-3.8-0.2-5.2c-0.6-1.5-1.8-2.6-3.5-3.5c-0.9-0.4-1.8-0.8-2.8-1c-0.3-0.1-0.5-0.1-0.8-0.2l-0.8-0.1
				c-0.3,0-0.6-0.1-0.9-0.1c-1.3-0.1-2.6-0.2-3.9-0.3c0.2-1.3,0.4-2.7,0.6-4l0.1-1c0-0.2,0-0.3,0.1-0.5l0-0.4l0.1-0.9
				c0-1.2,0.1-2.4-0.1-3.4c-0.2-1-0.5-1.8-0.8-2.2c-0.2-0.1-0.3-0.3-0.6-0.3c-0.2-0.1-0.6-0.1-1-0.1c-1.2,0-2.9,0.6-4.4,1.3
				c-0.4,0.2-0.8,0.4-1.2,0.6l-0.6,0.3l-1.2,0.7c-1.6,1-3.3,2.3-5,3.5c-0.4-1.2-0.8-2.4-1.2-3.7c-0.4-1.2-0.8-2.5-1.2-3.6
				c-0.4-1.1-0.9-2.1-1.4-3c-0.5-0.9-1.1-1.7-1.6-2.1c-0.1-0.1-0.2-0.2-0.3-0.2c-0.1,0-0.2-0.1-0.2-0.1c0,0,0,0-0.1,0c0,0,0,0,0,0
				c0,0-0.1,0-0.2,0c-0.3,0.1-1,0.5-1.6,1.2c-0.6,0.7-1.2,1.5-1.8,2.4c-0.6,0.9-1.1,1.9-1.6,2.8c-0.3,0.5-0.4,0.8-0.9,1.9
				c-0.4,1-0.8,2.1-1.2,3.2c-1.6-0.2-3.1-0.4-4.6-0.7l-0.5-0.1l-0.3,0l-0.6-0.1l-1.3-0.1c-0.8-0.1-1.7-0.1-2.5-0.1
				c-0.8,0-1.6,0-2.4,0.1c-1.5,0.1-3,0.5-4.1,1c-1.2,0.5-1.9,1.2-2.4,2.1c-0.5,0.9-0.7,2.1-0.6,3.4c0.1,1.3,0.4,2.7,0.8,4
				c0.4,1.3,0.9,2.6,1.5,3.9c0.3,0.6,0.6,1.2,0.9,1.8l0.3,0.5c0.2,0.3,0.3,0.5,0.5,0.8c0.3,0.5,0.7,1,1,1.6
				c-0.4,0.8-0.9,1.6-1.3,2.3l-0.2,0.3l-0.1,0.2l-0.2,0.3l-0.3,0.6c-0.4,0.8-0.8,1.7-1.1,2.5c-0.3,0.8-0.5,1.6-0.5,2.3
				c0,0.7,0,1.3,0.2,1.7c0.3,0.9,1.5,1.5,2.8,1.7c0.3,0.1,0.7,0.1,1,0.1l0.5,0c0.3,0,0.6,0,0.8,0c1.2-0.1,2.4-0.3,3.4-0.4
				c0.1,0.9,0,1.9,0.1,2.8c0,0.4,0,0.9,0.1,1.3c0,0.3,0.1,0.6,0.1,0.9c0.1,1,0.3,1.9,0.6,2.6c0.3,0.6,0.7,1.1,1.2,1.2
				c0.6,0.1,1,0.1,1.6-0.1c1.1-0.4,2-1,2.5-1.3c0.6-0.4,0.9-0.5,1-0.5c0.1,0.1,0,0.5-0.5,1c-0.4,0.6-1.1,1.4-2.4,2.2
				c-0.6,0.4-1.6,0.8-2.7,0.6c-1.1-0.1-2.2-0.9-2.8-2c-0.6-1-1-2.1-1.2-3.3c-0.1-0.4-0.2-0.8-0.2-1.2c-0.1-0.3-0.1-0.6-0.2-0.8
				c-0.4,0.1-0.8,0.2-1.1,0.2l-0.3,0l-0.7,0c-0.4,0-0.9,0-1.4-0.1c-0.9-0.1-1.9-0.3-3-0.8c-1-0.5-2.1-1.3-2.7-2.5
				c-0.6-1.2-0.8-2.4-0.8-3.6c0-1.2,0.2-2.3,0.5-3.3c0.3-1.1,0.7-2.1,1.1-3.1c0.2-0.4,0.4-0.9,0.6-1.4c0.1-0.1,0.1-0.3,0.2-0.4
				l-0.2-0.2l-0.1-0.1l-0.3-0.5c-0.4-0.7-0.8-1.3-1.1-2c-0.7-1.4-1.4-2.8-2-4.4c-0.6-1.6-1-3.3-1.2-5.1c-0.2-1.8,0-4,1-6
				c1-2.1,2.8-3.7,4.7-4.6c1.9-0.9,3.9-1.4,5.8-1.6c1-0.1,1.9-0.1,2.9-0.2c0.9,0,1.9,0,2.9,0.1c0.9,0.1,1.7,0.1,2.6,0.2l0.8,0.1
				c0,0,0-0.1,0-0.1c0,0.1,0.3-0.8,0.6-1.3c0.5-1.1,1.1-2.3,1.8-3.4c0.7-1.1,1.4-2.2,2.4-3.3c1-1.1,2.2-2.2,4.2-2.9
				c1-0.3,2.3-0.4,3.4-0.1c0.6,0.1,1,0.4,1.5,0.6c0.5,0.2,0.8,0.5,1.2,0.8c1.4,1.2,2.2,2.5,3,3.7c0.7,1.3,1.3,2.5,1.8,3.8
				c0,0.1,0,0,0,0l0,0l0,0l0,0c0,0,0,0,0,0l0.1,0l0.7-0.4c0.5-0.2,0.9-0.5,1.4-0.7c2-0.9,4.1-1.7,6.8-1.8c1,0,2,0.1,3.1,0.4
				c1.1,0.3,2.1,1.1,3,1.9c1.6,1.7,2.1,3.7,2.4,5.3c0.3,1.7,0.2,3.2,0.2,4.8l-0.1,1.1c0,0.1,0,0.1,0,0.1l0,0l0,0l0,0l0,0l0,0
				c0,0,0,0,0,0l0.1,0c0.3,0.1,0.7,0.2,1,0.2c1.4,0.4,2.7,0.8,4,1.5c1.3,0.7,2.6,1.5,3.7,2.7c1.1,1.1,2,2.5,2.6,4
				c1.1,3,0.9,6,0.4,8.6c-0.2,0.6-0.3,1.3-0.5,1.9l-0.3,0.9l-0.1,0.4l0,0.1c-0.1,0.2-0.2,0.3-0.2,0.4l0.1,0l0.1,0l0,0l0.3,0.1
				l0.5,0.2c1.5,0.5,2.9,1,4.3,1.8c1.4,0.7,2.7,1.7,3.9,2.9c1.2,1.2,2.1,2.7,2.6,4.4c0.5,1.7,0.5,3.4,0.2,4.9
				c-0.3,1.5-0.8,2.9-1.4,4.2c-0.6,1.3-1.3,2.4-2,3.4c-0.8,1.2-1.6,2.1-2.5,3c-1.8,1.8-3.8,3.3-5.9,4.3c-2.2,1.1-4.5,1.7-6.8,1.7
				c-2.3,0.1-4.4-0.4-6.3-1.2c-0.5-0.2-0.9-0.4-1.3-0.6c-0.4-0.2-0.8-0.4-1.2-0.7l-0.6-0.4l-0.3-0.2c-0.2-0.1-0.3-0.2-0.5-0.4
				c-0.2-0.2-0.4-0.4-0.7-0.6l-0.2-0.2l-0.1-0.1c0,0-0.1-0.1,0,0c0,0.1,0.1,0.2,0.1,0.3c0,0.4-0.1,0.8-0.4,1.1c0,0,0,0.1-0.1,0.1
				l-0.2,0.2l-0.4,0.3c-0.2,0.2-0.5,0.4-0.8,0.5c-0.3,0.2-0.5,0.3-0.8,0.4c-0.3,0.1-0.5,0.2-0.7,0.3c-0.5,0.1-0.9,0.2-1.4,0.3
				c-0.4,0-0.9,0.1-1.3,0.1c-0.8,0.1-1.5,0-2.2-0.1c-0.7-0.1-1.2-0.2-1.8-0.3C203.9,419,202.9,418.5,202.9,418.3z"/>
		</g>
	</g>
</g>
<g id="XMLID_11_">
	<g id="XMLID_45_">
		<g id="XMLID_49_">
			<path id="XMLID_50_" d="M223.9,400.3c0.3,0.3,0.1,1-0.5,2c-0.7,1-1.7,2.4-3.6,3.8c-0.9,0.7-2.1,1.4-3.8,1.8
				c-0.9,0.1-1.8,0.2-2.9-0.1c-1-0.3-2.1-0.9-2.8-1.6c-1.5-1.5-2.2-3.2-2.7-4.9c-0.2-0.8-0.4-1.7-0.5-2.5c-0.1-0.9-0.2-1.7-0.2-2.7
				l6-0.4c0,0.6,0.1,1.2,0.1,1.7c0.1,1,0,2-0.1,2.9c0,1-0.4,1.9-0.6,2.8c-0.1,0.5-0.3,0.9-0.5,1.3c-0.2,0.4-0.4,0.8-0.5,1.2
				c-0.4,0.8-0.9,1.5-1.3,2.2c-1.9,2.7-4.1,4.5-6.1,5.7c-4,2.4-6.9,2.8-7.2,2c-0.4-0.8,1.8-2.4,4.6-5.3c1.4-1.5,2.9-3.2,4.1-5.4
				c1.1-2.1,1.8-4.6,1.7-7.2c0-0.4,0-0.8-0.1-1.2l6-0.4c0,0.5,0,1.3,0.1,1.9c0.1,0.6,0.2,1.3,0.3,1.8c0.2,1.2,0.6,2.1,1,2.6
				c0.3,0.4,0.5,0.6,1.2,0.6c0.7,0,1.6-0.2,2.4-0.5c1.6-0.6,3-1.4,4.1-1.9C222.9,400.2,223.6,400,223.9,400.3z"/>
		</g>
	</g>
</g>
<g id="XMLID_9_">
	<g id="XMLID_52_">
		<g id="XMLID_56_">
			<path id="XMLID_57_" d="M156.8,375.2c-0.2,0.1-0.7-0.2-1.5-1c-0.4-0.4-0.9-0.8-1.6-1.3c-0.6-0.5-1.3-1-2.1-1.3
				c-0.4-0.2-0.8-0.3-1.2-0.3c-0.4,0-0.7,0.1-1,0.2c-0.6,0.3-1.3,1.2-1.9,2.3c-0.6,1.1-1,2.5-1.3,4c-0.1,0.4-0.2,0.7-0.2,1.1
				c-0.1,0.3-0.1,0.7-0.2,1c-0.1,0.4-0.1,0.8-0.2,1.2c0,0.2-0.1,0.4-0.2,0.5c-0.1,0.2-0.1,0.3-0.2,0.4c-0.2,0.3-0.3,0.4-0.6,0.6
				c-0.1,0.1-0.3,0.1-0.4,0.1l-0.5,0l-1,0l-1-0.3l-0.9-0.2c-0.3-0.1-0.7-0.1-1-0.2c-0.7-0.1-1.3-0.2-1.9-0.2l-0.2,0l-0.1,0
				c-0.1,0-0.1,0-0.1,0c0,0,0,0,0,0c0,0,0,0,0,0.1c0,0,0,0,0.1,0.3c0.2,0.5,0.5,1.2,0.8,1.8l0.4,0.6l0.7,1.1c0.5,0.7,1,1.4,1.6,2.2
				l0.4,0.6c0.2,0.2,0.3,0.4,0.3,0.5c0.1,0.3,0.3,0.7,0.3,0.9l0,0.3c0,0.1,0,0.2,0,0.3c0,0.2-0.1,0.3-0.1,0.4
				c-0.1,0.2-0.1,0.3-0.5,0.8l-0.2,0.2l-0.3,0.2c0,0-0.1,0.1-0.1,0.1l-0.2,0.1l-0.4,0.1l-0.2,0.1c-0.1,0-0.3,0-0.4,0l-0.8-0.1
				c-0.8-0.3-1.6-0.5-2.3-0.7l-1.1-0.3c-0.4-0.1-0.7-0.2-1.1-0.2l-0.6-0.1c-0.2,0-0.3,0-0.5,0c-0.3,0-0.6-0.1-0.9-0.1
				c-1.2-0.1-2.4,0.1-3.4,0.4c-1.1,0.3-2,0.8-2.8,1.4c-0.4,0.4-0.8,0.7-1.1,1.1l-0.5,0.6l-0.2,0.3l-0.2,0.3
				c-1.2,1.8-1.7,3.7-1.3,5.2c0.4,1.6,1.5,3,2.8,4.1c2.6,2.2,5.4,3.4,7.3,4.3c1.9,0.9,2.9,1.4,2.9,1.7c-0.1,0.3-1.3,0.4-3.4,0
				c-1.1-0.2-2.4-0.5-3.8-1c-1.5-0.5-3.1-1.3-4.8-2.4c-0.8-0.6-1.7-1.3-2.5-2.2c-0.8-0.9-1.5-2-1.9-3.4c-0.4-1.3-0.5-2.9-0.2-4.3
				c0.3-1.4,0.8-2.8,1.5-4l0.3-0.5l0.3-0.5c0.2-0.3,0.4-0.6,0.7-0.9c0.5-0.6,1-1.1,1.6-1.7c1.2-1,2.7-1.9,4.3-2.3
				c1.6-0.5,3.2-0.7,4.8-0.6c0.4,0,0.8,0,1.2,0.1c0.2,0,0.4,0,0.6,0.1l0.5,0.1c0,0,0,0,0,0l0,0c0,0,0,0,0,0l0,0l0,0l-0.3-0.5
				c-0.4-0.8-0.9-1.7-1.2-2.8c-0.1-0.5-0.3-1.4-0.2-2.1c0.1-0.8,0.4-1.5,0.8-2.1c0.9-1.2,2.8-1.6,3.8-1.6c1,0,1.9,0.2,2.7,0.3
				c0.4,0.1,0.8,0.2,1.2,0.3c0.1,0,0.1,0,0.1,0l0,0l0.1,0c0,0,0.1,0.1,0.2,0.1c0,0,0-0.1,0.1-0.1l0-0.1l0,0c0,0,0,0,0,0l0-0.2
				c0.1-0.4,0.2-0.8,0.4-1.3c0.5-1.6,1.1-3.2,2-4.6c0.9-1.4,2-2.7,3.7-3.4c0.8-0.3,1.7-0.3,2.5-0.2c0.8,0.2,1.4,0.5,1.9,0.8
				c1.1,0.7,1.7,1.4,2.3,2.1c0.5,0.7,0.9,1.3,1.2,1.8C156.8,374.4,157,375,156.8,375.2z"/>
		</g>
	</g>
</g>
<g id="XMLID_12_">
	<g id="XMLID_60_">
		<g id="XMLID_64_">
			<path id="XMLID_65_" d="M136.6,399.9c1.6-0.5,3.8,2.7,6.1,5.6c0.6,0.7,1.1,1.3,1.6,1.8c0.5,0.5,0.9,0.9,1.4,1.3
				c0.9,0.7,1.7,1.3,2,2c0.3,0.8-0.7,2-2.9,2.1c-1.1,0.1-2.3-0.2-3.5-0.8c-1.2-0.6-2.3-1.5-3.2-2.6c-1.8-2.2-2.4-4.6-2.5-6.2
				C135.4,401.3,135.8,400.1,136.6,399.9z"/>
		</g>
	</g>
</g>
<g id="XMLID_10_">
	<g id="XMLID_68_">
		<g id="XMLID_72_">
			<path id="XMLID_73_" d="M159.9,396c0.8,0.2,1.3,1.2,1.2,2.8c-0.1,0.8-0.2,1.7-0.7,2.6c-0.4,0.9-1.2,1.9-2.3,2.8
				c-1.1,0.8-2.4,1.3-3.5,1.4c-1.2,0.1-2.2,0-3-0.4c-1.6-0.6-2.2-1.7-1.8-2.5c0.3-0.8,1.2-1.2,2.1-1.7c1-0.5,1.8-1,2.7-1.6
				c0.9-0.7,1.8-1.6,2.8-2.3C158.2,396.3,159.1,395.8,159.9,396z"/>
		</g>
	</g>
</g>
<g id="XMLID_5_">
	<g id="XMLID_75_">
		<g id="XMLID_79_">
			<path id="XMLID_80_" d="M207.5,338.9c-0.2,0.4-2.1,0-5.6-1c-1.7-0.5-3.8-1.2-6.3-2c-2.4-0.8-5.2-1.8-8.1-2.7
				c-3-0.9-6.2-1.5-9.7-1.5c-3.5-0.1-7.3,0.3-11.1,1.4c-0.5,0.1-0.9,0.3-1.4,0.4c-0.5,0.2-0.9,0.3-1.3,0.5c-0.8,0.3-1.4,0.8-1.7,1.2
				c-0.3,0.4-0.3,0.5-0.3,0.8c0,0.3,0.3,0.9,0.8,1.5c1.1,1.2,2.7,2.1,4.7,2.7c2,0.6,4.2,1,6.7,1.4l0.9,0.1l0.5,0.1l0.6,0.1
				c1.1,0.3,2.2,0.7,3,1.5c1.7,1.6,2.1,4.1,1.2,6.3c-0.2,0.5-0.5,1-0.8,1.5c-0.2,0.2-0.4,0.5-0.6,0.7c-0.2,0.2-0.3,0.3-0.5,0.5
				c-0.7,0.6-1.5,1-2.2,1.4c-1.5,0.6-2.7,0.9-3.8,1.1c-1.1,0.3-2.3,0.5-3.4,0.7c-4.5,0.7-8.9,1-13,1.1c-4.1,0.1-8,0-11.6-0.1
				c-3.6-0.2-7-0.4-10-0.5c-12.2-0.8-19.7-1.6-19.7-2.4c0-0.8,7.5-1.4,19.7-1.7c3-0.1,6.4-0.1,10-0.2c3.6-0.1,7.4-0.2,11.4-0.4
				c4-0.2,8.1-0.7,12.3-1.4c1-0.2,2.1-0.4,3.1-0.7c1.1-0.2,2.1-0.5,2.7-0.8c0.3-0.1,0.6-0.3,0.7-0.4c0,0,0.1-0.1,0.1-0.1
				c0,0,0,0,0,0l0,0c0,0,0,0,0,0l0,0l-1.4-0.2c-2.4-0.4-4.9-0.8-7.5-1.6c-2.6-0.8-5.2-2.2-7.2-4.5c-1-1.2-1.9-2.7-2.2-4.6
				c-0.1-1,0-2,0.3-3c0.3-1,0.9-1.8,1.5-2.4c1.2-1.3,2.5-2,3.7-2.5c0.6-0.3,1.2-0.5,1.8-0.6c0.6-0.2,1.1-0.3,1.7-0.5
				c8.9-2.3,17.4-1.1,23.6,1.4c3.1,1.2,5.7,2.5,8,3.6c2.3,1.1,4.3,2.1,5.9,2.9C206,337.4,207.7,338.5,207.5,338.9z"/>
		</g>
	</g>
</g>
<g id="XMLID_13_">
	<g id="XMLID_83_">
		<g id="XMLID_87_">
			<path id="XMLID_88_" d="M249.9,328c0.1,1.6-9.2,3.7-20.8,3.6c-2.9,0-5.6-0.1-8.3-0.5c-2.6-0.3-5.2-1.2-7-2.2c-1.8-1-3-2-3.8-2.8
				c-0.8-0.8-1.1-1.4-0.9-1.8c0.2-0.4,0.9-0.4,2-0.3c1.1,0.2,2.6,0.6,4.3,0.9c1.7,0.4,3.6,0.6,5.9,0.6c2.3,0,5.1,0,7.9,0
				C240.5,325.7,249.8,326.3,249.9,328z"/>
		</g>
	</g>
</g>
<g id="XMLID_24_">
	<g id="XMLID_91_">
		<g id="XMLID_95_">
			<path id="XMLID_96_" d="M392.8,327.7c0.1,0.4-2.2,1.5-6.8,2.2c-4.5,0.7-11.4,1.1-19.5-1.1c-2-0.5-4.1-1.2-6.2-2.1
				c-2.1-0.8-4.1-1.8-6.1-2.4c-2.1-0.6-4-0.8-6.2-0.5c-2.2,0.3-4.6,1-7.4,1.6c-5.5,1.1-11.3,1.4-17.2,1.2
				c-5.9-0.1-11.8-0.5-17.7-0.3c-11.8,0.3-22.7,3.9-32.5,7.5c-4.9,1.8-9.6,3.7-14,5.5c-4.4,1.7-8.5,3.3-12.3,4.7
				c-15,5.7-24.5,8.9-24.8,8.1c-0.3-0.8,8.5-5.3,23.1-12c3.7-1.7,7.7-3.5,12-5.4c4.3-1.9,8.9-4,13.9-6c5-2,10.3-4,16-5.6
				c2.9-0.8,5.8-1.4,8.9-1.9c3.1-0.5,6.2-0.8,9.4-0.9c6.3-0.2,12.4,0.3,18,0.4c5.7,0.2,11.1,0.1,16-0.8c2.5-0.4,5.1-1.1,7.9-1.4
				c1.4-0.1,2.9-0.1,4.3,0.1c1.4,0.2,2.7,0.6,4,1c2.5,0.9,4.5,1.9,6.5,2.9c1.9,0.9,3.8,1.7,5.6,2.3c7.3,2.5,13.7,2.8,18.1,2.8
				C390.2,327.6,392.7,327.2,392.8,327.7z"/>
		</g>
	</g>
</g>
<g id="XMLID_30_">
	<g id="XMLID_99_">
		<g id="XMLID_103_">
			<path id="XMLID_104_" d="M389,358.5c-0.8,0.4-2.7-2.4-6.4-5.9c-1.9-1.7-4.2-3.6-7.1-5.2c-2.8-1.6-6.2-3-9.8-3.8
				c-0.5-0.1-0.9-0.2-1.4-0.3c-0.5-0.1-0.9-0.1-1.4-0.2c-0.9-0.1-1.8-0.2-2.7-0.2c-1.9-0.1-3.8-0.2-5.7-0.4
				c-1.9-0.2-3.9-0.7-5.6-1.5c-1.7-0.7-3.1-1.7-4.2-2.6c-2.3-1.9-3.7-3.6-4.6-4.9c-0.9-1.3-1.2-2.2-0.9-2.5c0.3-0.3,1.2,0,2.5,0.7
				c1.3,0.7,3.1,1.9,5.3,3.1c1.1,0.6,2.3,1.1,3.6,1.5c1.3,0.4,2.7,0.6,4.3,0.6c1.6,0.1,3.4,0,5.4,0c1,0,2.1,0,3.2,0.2
				c0.5,0.1,1.1,0.1,1.7,0.2c0.5,0.1,1.1,0.2,1.7,0.3c4.4,0.9,8.4,2.7,11.5,5c3.2,2.2,5.6,4.7,7.3,7
				C389.2,354.6,389.7,358.3,389,358.5z"/>
		</g>
	</g>
</g>
<g id="XMLID_32_">
	<g id="XMLID_107_">
		<g id="XMLID_111_">
			
				<ellipse id="XMLID_112_" transform="matrix(0.9854 0.1703 -0.1703 0.9854 68.315 -62.1172)" cx="396.2" cy="367.1" rx="3.8" ry="3"/>
		</g>
	</g>
</g>
<g id="XMLID_35_">
	<g id="XMLID_115_">
		<g id="XMLID_119_">
			<path id="XMLID_120_" d="M253.3,356c0.1,0.8-1.3,1.7-3.4,2.6c-2.1,0.9-5,2-8.2,3.3c-3.2,1.3-6,2.5-8.2,3.4
				c-1.2,0.4-1.8,0.5-2.2,0.7c-0.5,0.2-0.8,0.5-1.2,0.4c-0.4,0-0.9-0.5-0.8-1.6c0.1-1.1,1.1-2.2,1.9-3.1c1.8-1.9,4.7-3.9,8.3-5.4
				c3.6-1.5,7.1-2,9.7-1.9C251.6,354.6,253.2,355.2,253.3,356z"/>
		</g>
	</g>
</g>
<g id="XMLID_43_">
	<g id="XMLID_123_">
		<g id="XMLID_127_">
			<path id="XMLID_128_" d="M274.5,342.6c0.6,1.6-1,3.7-3.6,4.7c-0.6,0.3-1.3,0.4-1.9,0.5c-0.6,0.1-1,0.1-1.4,0
				c-0.4-0.1-0.8-0.2-1.2-0.3c-0.4-0.1-0.8-0.2-1.1-0.5c-0.3-0.2-0.6-0.6-0.6-1.1c0-0.5,0.2-1.1,0.5-1.7c0.4-0.6,0.9-1.1,1.5-1.5
				c0.5-0.4,1.1-0.7,1.8-1C271.3,340.7,274,341.1,274.5,342.6z"/>
		</g>
	</g>
</g>
<g id="XMLID_58_">
	<g id="XMLID_131_">
		<g id="XMLID_135_">
			<path id="XMLID_136_" d="M273.7,371.6c-0.4,0.1-0.9-0.2-1.6-0.5c-0.7-0.3-1.6-0.6-2.7-0.7c-1.1-0.1-2.4,0.1-4,0.6
				c-1.6,0.5-3.6,1.4-5.9,2.2c-1.1,0.4-2.3,0.8-3.5,1.1c-1.2,0.3-2.2,0.5-3.3,0.6c-1.9,0.3-3.6,0.5-5.1,0.7c-2.8,0.4-4.5,1-5.1,0.4
				c-0.3-0.3-0.2-0.9,0.4-1.8c0.6-0.8,1.7-1.8,3.2-2.6c1.5-0.8,3.3-1.5,5.3-2.1c0.9-0.3,1.9-0.6,2.9-0.9c1-0.3,1.9-0.7,3-1
				c2.1-0.8,4.3-1.6,6.6-2c1.2-0.2,2.4-0.3,3.5-0.1c1.1,0.1,2.3,0.4,3.1,0.9c1.8,0.9,2.9,2.3,3.2,3.3
				C274.3,370.8,274,371.5,273.7,371.6z"/>
		</g>
	</g>
</g>
<g id="XMLID_66_">
	<g id="XMLID_139_">
		<g id="XMLID_143_">
			<path id="XMLID_144_" d="M292.7,365.7c-0.1,0.8-0.7,1.5-1.3,2c-0.6,0.5-1.3,0.9-2.1,1.2c-0.8,0.2-1.6,0.3-2.4,0.2
				c-0.8-0.1-1.6-0.4-2.2-1c-0.5-0.6-0.7-1.5-0.2-2.5c0.5-1,1.6-2,3.1-2.4c1.5-0.4,2.9-0.2,3.9,0.4
				C292.4,364.1,292.8,364.9,292.7,365.7z"/>
		</g>
	</g>
</g>
<g id="XMLID_74_">
	<g id="XMLID_147_">
		<g id="XMLID_151_">
			<path id="XMLID_152_" d="M316.2,337.6c-1,1.4-2.8,1.7-4.4,1c-1.5-0.7-2.5-2.3-2.2-3.9c0.2-0.8,0.8-1.4,1.7-1.7
				c0.8-0.3,1.9-0.3,3,0.2c1,0.5,1.8,1.3,2.1,2.1C316.8,336.1,316.7,337,316.2,337.6z"/>
		</g>
	</g>
</g>
<g id="XMLID_82_">
	<g id="XMLID_155_">
		<g id="XMLID_159_">
			<path id="XMLID_160_" d="M255.1,421.5c-0.1-0.8,1.1-1.7,3.2-2.5c1-0.4,2.3-0.7,3.6-1.1c0.1,0,0.4-0.1,0.5-0.1c0,0,0,0,0,0
				c0,0,0-0.1,0-0.1c0,0,0-0.1,0-0.1c0,0,0.1,0.1,0.3,0c0.1,0,0.2-0.2,0.2-0.4c0-0.1,0-0.1,0-0.2c0,0,0-0.1-0.1-0.1l-0.1-0.1
				l-0.2-0.3c-0.3-0.4-0.6-0.8-0.8-1.2c-0.5-0.8-0.6-1.6-0.6-2.1c0.1-0.6,0.3-0.9,0.6-1c0.3-0.1,0.7,0,1.1,0.1
				c0.4,0.1,0.8,0.3,1.4,0.5c0.3,0.1,0.6,0.2,0.9,0.4l0.3,0.1l0.1,0.1c0.1,0,0.1,0,0.2,0.1c0.4,0.2,0.7,0.4,1.1,0.6
				c1.6,0.9,3.1,2.2,3.9,3.6c0.4,0.7,0.6,1.5,0.5,2.3c-0.1,0.4-0.3,0.9-0.4,1.2c-0.2,0.3-0.3,0.5-0.6,0.8c-0.3,0.3-0.8,0.6-1.4,0.8
				c-0.6,0.2-1.5,0.2-2.2,0.3c-0.8,0.1-1.5,0.1-2.2,0.2c-0.4,0-0.7,0-1.1,0.1c-0.3,0-0.4,0-0.6,0c-1.4,0-2.7-0.1-3.8-0.2
				C256.6,422.9,255.2,422.3,255.1,421.5z"/>
		</g>
	</g>
</g>
<g id="XMLID_90_">
	<g id="XMLID_163_">
		<g id="XMLID_167_">
			<path id="XMLID_168_" d="M307.7,401.4c0.1,0.8-2.3,2-6.3,2.9c-4.1,0.9-9.8,1.3-16,1.2c-3.1,0-6-0.1-8.6-0.2
				c-2.6-0.1-5-0.2-6.9-0.2c-1.9,0-3.4,0.1-4.5,0.1c-1.1,0.1-1.8,0-2-0.3c-0.2-0.4,0.2-1,1.2-1.8c1-0.8,2.7-1.6,4.8-2.2
				c2.1-0.6,4.6-0.9,7.3-1.1c2.7-0.2,5.7-0.3,8.8-0.3c6.2,0,11.7,0.3,15.6,0.5C305,400.3,307.6,400.6,307.7,401.4z"/>
		</g>
	</g>
</g>
<g id="XMLID_98_">
	<g id="XMLID_171_">
		<g id="XMLID_175_">
			<path id="XMLID_176_" d="M296.4,409.2c0.1,0.7-1.1,1.5-3.1,2.2c-0.5,0.2-1.1,0.4-1.7,0.5c-0.3,0.1-0.6,0.2-0.9,0.3
				c-0.3,0.1-0.6,0.2-0.9,0.3c-0.5,0.2-1.1,0.4-1.4,0.6c-0.1,0.1-0.2,0.2-0.2,0.2c0,0,0,0.1,0,0.1c0-0.1,0,0.2,0,0.7
				c0,0.3,0,0.6-0.1,1c-0.1,0.5-0.2,1.1-0.4,1.6c-0.1,0.4-0.3,0.7-0.5,1c-0.6,0.8-1.3,1.5-2.2,1.9c-0.2,0.1-0.4,0.2-0.7,0.3
				c-0.2,0.1-0.3,0.1-0.5,0.2c-0.3,0.1-0.6,0.2-0.9,0.2c-0.5,0.1-1,0.2-1.3,0.2c-0.3,0.1-0.5,0.1-0.8,0.2c-1,0.3-2,0.9-2.7,1.6
				c-1.5,1.3-2.1,2.8-2.9,2.9c-0.4,0-0.8-0.4-1-1.3c-0.2-0.9-0.2-2.2,0.4-3.8c0.6-1.5,1.9-3.2,4-4.4c0.5-0.3,1.1-0.5,1.7-0.7
				c0.4-0.1,0.9-0.3,1.4-0.4c0.9-0.3,0.5-0.2,0.6-0.3c0,0,0,0,0,0c0,0,0,0.1,0,0c0-0.2,0.1-0.5,0.1-0.7c0.1-0.6,0.2-1.4,0.6-2.5
				c0.4-0.7,0.9-1.4,1.5-1.9c0.6-0.5,1.2-0.8,1.7-1c1.1-0.4,2-0.6,2.9-0.6c0.4,0,0.8,0,1.2,0c0.3,0,0.7,0,1,0c0.6,0,1.2,0.1,1.7,0.2
				C295,408,296.3,408.5,296.4,409.2z"/>
		</g>
	</g>
</g>
<g id="XMLID_106_">
	<g id="XMLID_179_">
		<g id="XMLID_183_">
			<path id="XMLID_184_" d="M314.6,390.6c0.2,0.3-0.5,1.3-2.4,1.9c-1.9,0.6-4.9,0.6-8.1-0.2c-1.6-0.4-3.3-1-4.9-1.5
				c-1.7-0.5-3.4-1-5.1-1.1c-0.8-0.1-1.6,0-2.4,0.1c-0.4,0.1-0.7,0.2-1.1,0.3c-0.3,0.1-0.7,0.3-1.1,0.5c-0.4,0.2-0.9,0.6-1.5,0.9
				c-0.6,0.3-1.4,0.7-2.1,0.9c-1.5,0.4-3.1,0.5-4.5,0.4c-1.4-0.1-2.6-0.3-3.8-0.5c-1.1-0.2-2.2-0.4-3.3-0.5
				c-2.2-0.3-4.3-0.7-6.3-0.9c-4-0.6-7.6-1-10.7-1.4c-3.1-0.4-5.4-0.7-7.1-0.7c-1.7-0.1-2.7-0.1-2.8-0.5c-0.1-0.4,0.6-1.2,2.4-1.8
				c1.8-0.7,4.5-1.1,7.6-1.2c3.2-0.2,6.9-0.2,11.1,0.1c2.1,0.1,4.3,0.3,6.5,0.6c1.1,0.1,2.3,0.3,3.4,0.5c1.1,0.2,2.2,0.3,3.2,0.4
				c1,0.1,1.8,0,2.5-0.2c0.6-0.1,1.3-0.6,2.5-1.2c0.5-0.3,1.2-0.6,1.9-0.8c0.7-0.2,1.4-0.4,2.1-0.5c1.4-0.2,2.7-0.1,3.9,0
				c2.4,0.4,4.4,1.2,6.2,1.9c1.8,0.8,3.2,1.6,4.5,2.2c2.7,1.2,4.8,1.8,6.4,1.9C313.4,390.4,314.4,390.2,314.6,390.6z"/>
		</g>
	</g>
</g>
<g id="XMLID_114_">
	<g id="XMLID_187_">
		<g id="XMLID_191_">
			<path id="XMLID_192_" d="M390.7,385.6c-0.1,0.4-1.1,0.6-2.9,0.8c-1.7,0.2-4.2,0.7-7.2,1.6c-1.6,0.4-3.3,0.9-5.1,1.4
				c-1.9,0.5-4,1-6.1,1.4c-4.4,0.8-9.3,1.2-14.4,1.1c-5.1-0.1-9.9-0.7-14.1-1.1c-4.2-0.4-8-0.7-11.1-0.7c-0.8,0-1.5,0-2.2,0
				c-0.7,0-1.3,0-1.9,0c-1.2,0.1-2.1,0.3-2.8,0.5c-1.4,0.5-2,1.3-2.4,1.1c-0.2-0.1-0.3-0.4-0.2-1c0.1-0.6,0.5-1.4,1.4-2.1
				c0.8-0.7,2-1.4,3.4-1.8c0.7-0.2,1.4-0.4,2.2-0.6c0.7-0.2,1.5-0.3,2.4-0.4c3.4-0.5,7.4-0.7,11.8-0.6c4.4,0.1,9.1,0.5,13.9,0.6
				c4.8,0.1,9.4-0.1,13.5-0.6c4.1-0.4,7.9-1.2,11.3-1.5c3.4-0.3,6.2-0.2,8.1,0.3C389.8,384.6,390.7,385.2,390.7,385.6z"/>
		</g>
	</g>
</g>
<g id="XMLID_122_">
	<g id="XMLID_195_">
		<g id="XMLID_199_">
			<path id="XMLID_200_" d="M361.9,368.3c-0.1-0.8,0.7-1.7,2.2-2.1c1.5-0.5,3.7-0.4,5.8,0.4c2.1,0.9,3.7,2.4,4.4,3.8
				c0.7,1.4,0.7,2.5,0,3c-0.6,0.5-1.7,0.4-2.8,0.1c-1.2-0.3-2.5-0.8-3.9-1.4c-1.4-0.6-2.7-1.2-3.8-1.8
				C362.8,369.7,362,369.1,361.9,368.3z"/>
		</g>
	</g>
</g>
<g id="XMLID_130_">
	<g id="XMLID_203_">
		<g id="XMLID_207_">
			<path id="XMLID_208_" d="M356.5,365.4c-0.7,1.5-4.3,1.4-8.4,0.4c-4-1-7.3-2.7-7.2-4.3c0.1-0.8,1.1-1.5,2.6-1.8
				c1.6-0.3,3.7-0.3,6,0.3c2.3,0.6,4.2,1.6,5.4,2.6C356.2,363.6,356.8,364.6,356.5,365.4z"/>
		</g>
	</g>
</g>
<g id="XMLID_138_">
	<g id="XMLID_211_">
		<g id="XMLID_215_">
			<path id="XMLID_216_" d="M131.2,374.1c0,0.8-1.6,1.6-4.1,2.6c-2.5,1-5.9,2.3-9.4,4c-1.8,0.9-3.4,1.8-4.9,2.6
				c-1.5,0.9-2.8,1.6-3.9,2.3c-1,0.6-1.7,1.1-2.1,1.5c-0.5,0.4-0.8,0.9-1.2,0.9c-0.4,0.1-0.9-0.4-1-1.5c-0.1-1.1,0.4-2.6,1.4-4
				c0.2-0.3,0.5-0.7,0.8-1c0.3-0.3,0.6-0.6,0.9-0.9c0.6-0.6,1.3-1.3,2.1-1.9c1.5-1.3,3.4-2.5,5.4-3.5c4.1-2,8.3-2.8,11.3-2.8
				C129.4,372.6,131.2,373.3,131.2,374.1z"/>
		</g>
	</g>
</g>
<g id="XMLID_146_">
	<g id="XMLID_219_">
		<g id="XMLID_223_">
			<path id="XMLID_224_" d="M167.9,311.7c-0.1,0.8-1.5,1.3-3.5,1.9c-2,0.5-4.6,1.1-7.4,2.1c-2.8,0.9-5.2,2-7.1,2.8
				c-1.9,0.8-3.3,1.2-3.9,0.6c-0.6-0.6-0.2-2.1,1.4-4c0.8-0.9,1.8-1.9,3.2-2.8c1.3-0.9,2.9-1.7,4.7-2.3c1.8-0.6,3.5-0.9,5.1-1
				c1.6-0.1,3,0.1,4.2,0.3C166.7,309.9,168,310.9,167.9,311.7z"/>
		</g>
	</g>
</g>
<g id="XMLID_154_">
	<g id="XMLID_227_">
		<g id="XMLID_231_">
			<path id="XMLID_232_" d="M265.4,430.8c-0.1,0.8-1.9,1.4-4.5,2.5c-1.4,0.5-3,1.2-4.9,1.9c-1.9,0.7-4.3,1.4-6.7,1.8
				c-4.9,0.8-9.5,0.4-12.6-0.4c-3.2-0.8-4.9-2-4.7-2.8c0.4-1.7,7.8-1.3,16.4-2.7c2.2-0.4,4.2-0.8,6.2-1.2c2-0.4,3.9-0.7,5.6-0.7
				c1.7-0.1,3.1,0.1,4,0.5C265,429.9,265.4,430.4,265.4,430.8z"/>
		</g>
	</g>
</g>
<g id="XMLID_162_">
	<g id="XMLID_235_">
		<g id="XMLID_239_">
			<path id="XMLID_240_" d="M266.3,448.5c-0.3,0.8-2.3,0.8-5.4,0.6c-1.5-0.1-3.3-0.2-5.3-0.2c-1,0-2,0-3.1,0c-0.3,0-0.5,0-0.8,0
				c-0.3,0-0.6,0-0.8,0.1c-0.6,0-1.1,0.1-1.7,0.1c-1.2,0.1-2.3,0.1-3.4,0.1c-1.1,0-2.2,0.1-3.3,0.1c-2.1,0-4,0-5.6-0.2
				c-3.2-0.3-5.2-0.9-5.3-1.7s1.8-1.7,4.9-2.5c1.6-0.4,3.4-0.8,5.5-1.1c1-0.2,2.1-0.3,3.3-0.4c1.2-0.1,2.4-0.2,3.6-0.3
				c0.6,0,1.2-0.1,1.9-0.1c0.3,0,0.6,0,0.9,0c0.3,0,0.6,0,0.9,0c1.2,0.1,2.4,0.2,3.5,0.4c2.2,0.4,4.1,0.9,5.7,1.6
				C265,446.3,266.6,447.8,266.3,448.5z"/>
		</g>
	</g>
</g>
<g id="XMLID_170_">
	<g id="XMLID_243_">
		<g id="XMLID_247_">
			<path id="XMLID_248_" d="M234.5,452.9c-0.4,1.6-5.7,1.8-12,1.8c-1.6,0-3.1-0.1-4.5-0.1c-0.7,0-1.4-0.1-2-0.1
				c-0.6,0-1.3-0.1-1.6-0.2c-0.2,0-0.3-0.1-0.5-0.1c-0.1,0-0.1,0-0.2-0.1c0,0-0.1,0-0.1,0c0,0,0,0,0,0c-0.2-0.1-0.4-0.1-0.6-0.1
				c-0.2,0-0.4,0.1-0.6,0.2c-0.1,0-0.2,0.1-0.3,0.2c-0.1,0.1-0.2,0.1-0.3,0.1c-0.1,0-0.2,0-0.3,0c-0.1,0-0.2-0.1-0.3-0.2
				c-0.2-0.2-0.4-0.7-0.3-1.2c0.1-0.5,0.3-1.1,0.8-1.7c0.1-0.1,0.1-0.1,0.2-0.2c0,0,0.1-0.1,0.2-0.2c0.2-0.1,0.3-0.2,0.5-0.3
				c0.3-0.2,0.7-0.4,1-0.5c0.7-0.3,1.3-0.4,1.9-0.6c0.7-0.2,1.4-0.3,2.1-0.4c1.5-0.2,3.1-0.4,4.9-0.3c3.5,0,6.6,0.7,8.8,1.5
				C233.4,451.1,234.6,452.1,234.5,452.9z"/>
		</g>
	</g>
</g>
<g id="XMLID_178_">
	<g id="XMLID_251_">
		<g id="XMLID_255_">
			<path id="XMLID_256_" d="M221.8,438.5c-0.3,0.8-1.6,1-3.2,1.1c-1.7,0.1-3.8,0-6.1-0.1c-1.2,0-2.3,0-3.3,0c-0.5,0-1,0-1.5,0
				c-0.2,0-0.5,0-0.7,0c-0.2,0-0.3,0-0.5-0.1c-0.6,0-0.9-0.2-1.4-0.1c-0.4,0.1-0.7,0.2-1.1,0c-0.4-0.1-0.8-0.6-0.8-1.4
				c0-0.4,0.2-0.8,0.5-1.3c0.3-0.5,0.8-0.8,1.3-1.2c0.3-0.2,0.5-0.3,0.8-0.5c0.2-0.1,0.5-0.2,0.8-0.3c0.5-0.2,1.1-0.4,1.7-0.6
				c1.2-0.3,2.7-0.5,4.1-0.5c3,0,5.6,0.9,7.2,2C221.5,436.6,222.2,437.8,221.8,438.5z"/>
		</g>
	</g>
</g>
<g id="XMLID_186_">
	<g id="XMLID_259_">
		<g id="XMLID_263_">
			<path id="XMLID_264_" d="M213.4,463.6c0,1.7-2.8,2.7-4.7,3.2c-0.9,0.2-1.7,0.4-2.5,0.4c-0.8,0-1.7,0.2-2.4-0.2
				c-0.7-0.3-1.2-1.4-0.6-2.8c0.5-1.4,2.1-2.8,4.1-3.3c2-0.5,3.6-0.1,4.6,0.5C212.9,462,213.5,462.8,213.4,463.6z"/>
		</g>
	</g>
</g>
<g id="XMLID_194_">
	<g id="XMLID_267_">
		<g id="XMLID_271_">
			
				<ellipse id="XMLID_272_" transform="matrix(0.9997 2.418727e-002 -2.418727e-002 0.9997 11.5216 -5.2351)" cx="222.2" cy="473.7" rx="6.3" ry="3"/>
		</g>
	</g>
</g>
<g id="XMLID_202_">
	<g id="XMLID_275_">
		<g id="XMLID_279_">
			<path id="XMLID_280_" d="M241.9,465.1c-0.1,1.7-3.4,2.7-7.3,2.7c-3.9-0.1-7.1-1.3-7.2-2.9c-0.1-1.6,3.2-3.2,7.3-3.1
				C238.8,461.9,242.1,463.5,241.9,465.1z"/>
		</g>
	</g>
</g>
<g id="XMLID_210_">
	<g id="XMLID_283_">
		<g id="XMLID_287_">
			<path id="XMLID_288_" d="M262.9,460.9c-0.2,0.8-1.2,1.4-2.7,1.7c-1.5,0.4-3.4,0.5-5.6,0.6c-1.1,0-2.1,0-3,0
				c-0.9,0-1.6-0.1-2.2-0.2c-0.6-0.1-1.1-0.1-1.6-0.2c-0.5-0.1-0.9-0.2-1.2-0.5c-0.3-0.3-0.4-0.8-0.2-1.4c0.2-0.6,0.8-1.3,1.6-1.9
				c0.8-0.6,1.9-1,3-1.3c1.1-0.3,2.2-0.4,3.5-0.5c2.5-0.1,4.7,0.4,6.3,1.2C262.3,459.2,263.1,460.1,262.9,460.9z"/>
		</g>
	</g>
</g>
<g id="XMLID_218_">
	<g id="XMLID_291_">
		<g id="XMLID_295_">
			<path id="XMLID_296_" d="M268.3,451.3c0.4-0.1,0.9,0.2,1.3,0.9c0.4,0.7,0.8,1.9,0.8,3.4c0,0.7-0.1,1.6-0.4,2.4
				c-0.2,0.9-0.7,1.8-1,2.5c-0.4,0.7-0.7,1.3-0.8,1.8c-0.2,0.6-0.3,1.2-0.4,1.8c-0.3,2.7,0.4,5.5,0.9,7.8c0.5,2.3,0.6,4-0.1,4.4
				c-0.7,0.4-2.1-0.5-3.7-2.5c-0.8-1-1.6-2.4-2.3-4.1c-0.6-1.7-1.1-3.9-0.8-6.2c0.1-1.2,0.4-2.3,0.9-3.4c0.5-1.1,1.1-2,1.6-2.6
				c0.5-0.6,0.8-1,1.1-1.5c0.3-0.4,0.6-0.9,0.8-1.3C267.2,453,267.5,451.5,268.3,451.3z"/>
		</g>
	</g>
</g>
<g id="XMLID_226_">
	<g id="XMLID_299_">
		<g id="XMLID_303_">
			<path id="XMLID_304_" d="M272.3,434.3c0.8,0.1,1.5,0.9,2,1.9c0.5,1.1,1,2.4,1.3,3.9c0.4,1.5,0.6,2.9,0.6,4c0,1.2-0.2,2.2-0.8,2.7
				c-0.7,0.5-1.7,0.3-2.9-0.6c-1.1-0.9-2.2-2.6-2.7-4.6c-0.5-2.1-0.3-4,0.2-5.4C270.6,434.8,271.5,434.2,272.3,434.3z"/>
		</g>
	</g>
</g>
<g id="XMLID_234_">
	<g id="XMLID_307_">
		<g id="XMLID_311_">
			<path id="XMLID_312_" d="M250.3,487.4c-0.5,0.7-2.6-0.1-5.7-0.6c-1.6-0.2-3.4-0.4-5.4-0.2c-1,0.1-2,0.3-3,0.5
				c-1,0.3-2,0.6-3.2,1.1c-1.2,0.5-2.5,1.1-4,1.4c-1.4,0.4-2.8,0.6-4.1,0.7c-2.6,0.2-4.8-0.1-6.6-0.5c-3.6-0.8-5.6-1.8-5.6-2.6
				c0.1-0.8,2.4-1.3,5.8-1.6c1.7-0.2,3.7-0.4,5.7-0.8c1-0.2,2-0.5,3.1-0.8c1-0.3,2.1-0.8,3.4-1.4c1.3-0.5,2.8-1.1,4.2-1.3
				c1.5-0.3,2.9-0.4,4.2-0.3c2.7,0.1,5,0.8,6.8,1.7c1.8,0.9,3,1.9,3.7,2.8C250.3,486.4,250.5,487.1,250.3,487.4z"/>
		</g>
	</g>
</g>
<g id="XMLID_242_">
	<g id="XMLID_315_">
		<g id="XMLID_319_">
			<path id="XMLID_320_" d="M254.7,470.8c0,1.7-3.6,3-7.7,3.9c-0.9,0.2-1.6,0.4-2.1,0.6c-0.3,0.1-0.4,0.1-0.6,0.2
				c-0.2,0.1-0.4,0.2-0.6,0.3c-0.4,0.2-0.7,0.5-1,0.8c-0.3,0.3-0.5,0.7-0.9,0.9c-0.4,0.2-0.9,0.1-1.4-0.4c-0.5-0.5-0.9-1.5-0.8-2.7
				c0.1-0.6,0.2-1.2,0.6-1.9c0.3-0.6,0.9-1.3,1.4-1.8c1.2-1,2.6-1.6,3.9-1.9C250.7,467.7,254.7,469.1,254.7,470.8z"/>
		</g>
	</g>
</g>
<g id="XMLID_250_">
	<g id="XMLID_323_">
		<g id="XMLID_327_">
			<path id="XMLID_328_" d="M262.4,487.4c0,0.4-0.2,0.8-0.6,1.1c-0.4,0.3-1,0.5-1.7,0.5c-1.4,0-3-0.7-3.9-1.1c-1-0.5-2-1.2-2.7-1.9
				c-0.7-0.7-1.2-1.5-1.1-2.3c0.1-0.8,0.8-1.5,2-1.8c1.2-0.3,2.9-0.1,4.5,0.7c0.8,0.4,1.5,0.9,1.9,1.3c0.4,0.4,0.7,0.8,0.9,1.2
				c0.2,0.4,0.3,0.7,0.5,1.1C262.3,486.6,262.4,487,262.4,487.4z"/>
		</g>
	</g>
</g>
<g id="XMLID_258_">
	<g id="XMLID_331_">
		<g id="XMLID_335_">
			<path id="XMLID_336_" d="M250.9,499.4c-0.1,0.8-0.8,1.5-1.9,2c-1.1,0.5-2.4,0.9-3.9,1.1c-1.5,0.2-2.9,0.2-4.1,0
				c-1.1-0.2-2-0.7-2.3-1.4c-0.3-0.8,0.1-1.7,1.1-2.6c1-0.9,2.6-1.6,4.5-1.9c1.9-0.2,3.7,0.1,4.9,0.7
				C250.4,497.7,251,498.5,250.9,499.4z"/>
		</g>
	</g>
</g>
<g id="XMLID_266_">
	<g id="XMLID_339_">
		<g id="XMLID_343_">
			<path id="XMLID_344_" d="M260,519.9c-0.4,0.7-5.7-1.1-13.9-4.7c-4.1-1.8-9-4-14.3-6.6c-2.7-1.3-5.5-2.6-8.3-3.8
				c-1.4-0.6-2.9-1.1-4.3-1.5c-1.5-0.4-2.9-0.7-4.5-0.8c-3.1-0.3-6.5-0.4-9.7-0.4c-3.2-0.1-6.3-0.1-9.2-0.1
				c-5.9,0.1-11.1,0.3-15.6,0.5c-8.9,0.4-14.5,0.8-14.6-0.1c-0.1-0.8,5.2-2.6,14.1-4.2c4.5-0.8,9.8-1.4,15.8-1.8
				c3-0.2,6.2-0.3,9.4-0.3c3.3,0,6.6,0,10.3,0.4c1.8,0.2,3.7,0.5,5.4,1c1.8,0.5,3.4,1.1,5,1.8c3.1,1.4,5.9,2.8,8.5,4.2
				c5.2,2.8,9.9,5.5,13.8,7.7C255.8,515.9,260.4,519.1,260,519.9z"/>
		</g>
	</g>
</g>
<g id="XMLID_274_">
	<g id="XMLID_347_">
		<g id="XMLID_351_">
			<path id="XMLID_352_" d="M217.2,544.3c0.1-0.4,0.9-0.6,1.9-1c1-0.4,2.4-1.3,3.4-2.7c0.5-0.7,0.8-1.6,0.9-2.4l0-0.3
				c0-0.3,0-0.6,0-0.9c0-0.7,0.2-1.3,0.5-1.9c0.6-1.2,1.8-2,3.2-2.3c0.5-0.1,1-0.2,1.5-0.3c0.4-0.1,0.8-0.2,1.1-0.3
				c0.8-0.2,1.5-0.4,2.3-0.5c1.6-0.4,3.2-0.8,4.9-1.3c3.3-0.9,6.4-2,9.1-3.1c2.7-1.1,5.2-2.2,7.1-3.3c1.9-1,3.2-2.1,4.2-2.8
				c1-0.8,1.6-1.3,2-1.1c0.4,0.2,0.5,1,0,2.4c-0.5,1.4-1.7,3.2-3.6,5c-1.9,1.7-4.4,3.3-7.2,4.9c-2.9,1.5-6.2,2.8-9.8,3.8
				c-1.8,0.5-3.6,0.9-5.3,1.2c-0.9,0.2-1.7,0.3-2.5,0.4c-0.4,0.1-0.8,0.1-1.2,0.2l-0.6,0.1l-0.2,0c0,0,0,0,0,0c0,0,0,0,0,0
				c-0.1,0-0.2-0.1-0.3,0c0,0-0.1,0.1-0.1,0.1l0,0c0,0,0-0.1,0-0.1l0,0.2c0,0.2-0.1,0.5-0.1,0.7c-0.5,1.9-1.5,3.3-2.6,4.3
				c-2.3,2-4.8,2.4-6.3,2.1C217.8,545.3,217.1,544.6,217.2,544.3z"/>
		</g>
	</g>
</g>
<g id="XMLID_282_">
	<g id="XMLID_355_">
		<g id="XMLID_359_">
			<path id="XMLID_360_" d="M261.9,497.5c0.6,0.6,0.7,1.5,0.7,2.3c0,0.9-0.1,1.7-0.4,2.5c-0.3,0.9-0.7,1.6-1.3,2.3
				c-0.5,0.6-1.2,1.2-2,1.4c-0.8,0.1-1.7-0.3-2.2-1.4c-0.6-1-0.7-2.6-0.2-4.2c0.6-1.6,1.7-2.8,2.8-3.2
				C260.4,496.8,261.4,496.9,261.9,497.5z"/>
		</g>
	</g>
</g>
<g id="XMLID_290_">
	<g id="XMLID_363_">
		<g id="XMLID_367_">
			<path id="XMLID_368_" d="M186.5,423.7c-0.3,0.8-2,1-4.4,1c-2.5,0-5.8,0-9.4,0.1c-3.6,0.2-6.9,0.5-9.4,0.7
				c-2.5,0.2-4.2,0.1-4.5-0.6c-0.3-0.7,0.9-2.1,3.3-3.4c2.4-1.3,6.1-2.4,10.3-2.6c4.2-0.2,8,0.6,10.5,1.7
				C185.5,421.7,186.8,422.9,186.5,423.7z"/>
		</g>
	</g>
</g>
<g id="XMLID_306_">
	<g id="XMLID_371_">
		<g id="XMLID_375_">
			<path id="XMLID_376_" d="M167.2,401.4c0.8,0,1.7,0.8,2.1,2.5c0.2,0.9,0.2,2-0.3,3.5c-0.3,0.7-0.7,1.5-1.5,2.2
				c-0.7,0.7-1.7,1.2-2.6,1.4c-1.9,0.4-3.3,0-4.4-0.5c-1.1-0.5-1.9-1.1-2.5-1.7c-1.2-1.2-1.6-2.4-1.1-3c0.5-0.7,1.6-0.8,2.9-0.8
				c0.6,0,1.4,0.1,2.2,0.2c0.7,0.1,1.4,0,1.7-0.1c0.1,0,0.1,0,0.2,0c0.1,0,0.2,0,0.3-0.2c0.3-0.3,0.7-0.8,1-1.4
				C165.7,402.4,166.4,401.5,167.2,401.4z"/>
		</g>
	</g>
</g>
<g id="XMLID_298_">
	<g id="XMLID_379_">
		<g id="XMLID_383_">
			<path id="XMLID_384_" d="M465.2,323c0.4,0.6-1.1,2.7-4.6,4.8c-1.8,1-4,2-6.6,2.7c-2.6,0.7-5.6,1.1-8.8,1
				c-3.1-0.1-6.2-0.7-8.6-1.6c-2.5-0.8-4.6-1.7-6.3-2.5c-3.4-1.6-5.5-2.6-5.4-3.5c0.1-0.8,2.7-1.2,6.6-0.6c1.9,0.3,4.1,0.8,6.5,1.2
				c2.4,0.5,4.8,0.8,7.5,0.9c2.6,0.1,5.2-0.1,7.5-0.4c2.3-0.3,4.3-0.8,6.1-1.2C462.5,323.1,464.8,322.3,465.2,323z"/>
		</g>
	</g>
</g>
<g id="XMLID_314_">
	<g id="XMLID_387_">
		<g id="XMLID_391_">
			<ellipse id="XMLID_392_" cx="475.6" cy="385" rx="11" ry="3"/>
		</g>
	</g>
</g>
<g id="XMLID_322_">
	<g id="XMLID_395_">
		<g id="XMLID_399_">
			<path id="XMLID_400_" d="M489.2,404.1c-0.6,0.6-1.9,0.4-3.5,0.1c-1.7-0.4-3.7-1-6.1-1.4c-2.3-0.4-4.5-0.6-6.2-0.7
				c-1.7-0.2-3-0.4-3.3-1.2c-0.3-0.7,0.5-2,2.4-2.9c0.9-0.5,2.2-0.9,3.5-1.1c1.4-0.2,2.9-0.2,4.5,0.1c1.6,0.3,3.1,0.8,4.3,1.5
				c1.2,0.7,2.3,1.4,3,2.2C489.4,402.1,489.8,403.5,489.2,404.1z"/>
		</g>
	</g>
</g>
<g id="XMLID_330_">
	<g id="XMLID_403_">
		<g id="XMLID_407_">
			<path id="XMLID_408_" d="M479.9,410.6c0,0.8-0.4,1.6-1,2.2c-0.6,0.6-1.4,1.1-2.4,1.5c-1,0.3-1.9,0.4-2.8,0.4
				c-0.9-0.1-1.7-0.4-2.2-1.1c-0.5-0.7-0.5-1.6,0-2.5c0.5-0.9,1.6-1.9,3-2.4c1.4-0.5,2.8-0.4,3.8,0
				C479.3,409.1,479.9,409.8,479.9,410.6z"/>
		</g>
	</g>
</g>
<g id="XMLID_338_">
	<g id="XMLID_411_">
		<g id="XMLID_415_">
			<path id="XMLID_416_" d="M488,425.4c0.3,0.3,0.4,0.7,0.2,1.3c-0.3,0.6-1,1.1-1.8,1.4c-0.8,0.3-1.7,0.4-2.3,0.4
				c-0.6,0.1-1.3,0.1-2.1,0.1c-1.4,0-2.8-0.2-3.9-0.5c-1.1-0.3-1.9-0.8-2.2-1.6c-0.2-0.8,0.2-1.7,1.3-2.5c1.1-0.8,2.8-1.4,4.8-1.4
				c1,0,1.9,0.2,2.7,0.4c0.8,0.3,1.2,0.5,1.5,0.8c0.3,0.3,0.5,0.5,0.7,0.8C487.3,425,487.7,425.1,488,425.4z"/>
		</g>
	</g>
</g>
<g id="XMLID_346_">
	<g id="XMLID_419_">
		<g id="XMLID_423_">
			
				<ellipse id="XMLID_424_" transform="matrix(0.9989 4.655721e-002 -4.655721e-002 0.9989 20.9954 -21.9638)" cx="482" cy="439.7" rx="4.9" ry="3"/>
		</g>
	</g>
</g>
<g id="XMLID_354_">
	<g id="XMLID_427_">
		<g id="XMLID_431_">
			<path id="XMLID_432_" d="M316,456c-0.8-0.1-1.5-1.8-1.6-4.8c0-1.5,0.1-3.4,0.8-5.5c0.4-1.1,0.9-2.1,1.6-3.2
				c0.4-0.5,0.7-1,1.2-1.5c0.2-0.2,0.5-0.5,0.7-0.7c0.1-0.1,0.3-0.2,0.4-0.3l0.3-0.2c0.1-0.1,0,0,0.2,0c0,0,0.1,0,0.1-0.1
				c0-0.1,0.1,0-0.2-0.6c-0.2-0.5-0.4-1-0.5-1.4c-0.5-1.9-0.2-3.7,0.3-4.9c0.5-1.3,1.3-2.1,1.9-2.5c0.6-0.4,1.1-0.4,1.4-0.2
				c0.6,0.5,0.2,1.8,0.4,3.4c0.1,0.8,0.3,1.7,0.8,2.5c0.1,0.2,0.3,0.4,0.4,0.6c0.1,0,0.5,0.8,1.2,1.3c1.8,1.2,3.8,2.4,5.7,3.7
				c-1.3,0.4-2.6,0.8-4,1.3c-0.7,0.2-1.5,0.4-2.1,0.7l-1,0.4l-0.7,0.5c-0.3,0.2-0.3,0.2-0.4,0.3c-0.1,0.1-0.1,0.1-0.2,0.2
				c-0.1,0.1-0.3,0.2-0.4,0.4c-0.3,0.3-0.5,0.6-0.8,0.8c-0.5,0.6-0.9,1.2-1.3,1.9c-0.7,1.3-1.3,2.7-1.7,4
				C317.6,454.4,316.8,456.1,316,456z"/>
		</g>
	</g>
</g>
<g id="XMLID_362_">
	<g id="XMLID_435_">
		<g id="XMLID_439_">
			<path id="XMLID_440_" d="M322.6,507.2c-0.3,0.3-1,0.1-2-0.7c-0.5-0.4-1-1-1.4-1.8c-0.5-0.8-0.9-1.9-0.9-3.3
				c0-0.7,0.2-1.5,0.4-2.2c0.3-0.7,0.7-1.4,1.1-1.9c0.8-1.1,1.6-2,1.9-2.6c0.2-0.5,0.3-1.1,0.1-1.8c-0.1-0.7-0.6-1.4-1.1-1.8
				c-0.1-0.1-0.2-0.2-0.4-0.3c0,0,0,0-0.1-0.1c-0.1-0.1-0.3-0.1-0.5-0.2c-0.3-0.1-0.7-0.3-1-0.4c-0.6-0.3-1.1-0.7-1.4-1.3
				c-0.4-0.5-0.6-1.1-0.7-1.7c-0.1-0.6-0.1-1.3,0.1-1.9c0.1-0.5,0.3-1,0.4-1.5c0.1-0.6,0.3-1.1,0.4-1.6c0.4-2.2,0.4-4.2,0.4-6
				c-0.1-3.5-0.7-5.8,0.1-6.2c0.4-0.2,1,0.1,1.8,1c0.8,0.9,1.7,2.4,2.3,4.4c0.7,2,1.1,4.5,0.9,7.4c0,0.7-0.1,1.4-0.2,2.2l0,0.4
				c0,0.1,0,0,0,0.1c0,0,0,0,0.1,0l0,0c0,0,0,0,0,0c0.1,0,0.2,0.1,0.4,0.2c0.5,0.3,1,0.6,1.4,1c1.7,1.5,2.7,3.4,3,5.4
				c0.1,1,0.1,2-0.1,3c-0.2,1-0.6,2-1.2,2.8c-1.1,1.5-2.1,2.2-2.7,2.9c-0.7,0.6-0.9,0.9-1.1,1.4c-0.4,1-0.1,2.4,0.1,3.4
				C322.8,506.3,322.9,506.9,322.6,507.2z"/>
		</g>
	</g>
</g>
<g id="XMLID_370_">
	<g id="XMLID_443_">
		<g id="XMLID_447_">
			<path id="XMLID_448_" d="M348.7,500.6c0,0.8-1,1.5-1.6,2.6c-0.1,0.2-0.2,0.5-0.5,0.9c-0.2,0.4-0.6,0.9-1.2,1.5
				c-0.6,0.6-1.7,1.3-2.8,1.5c-1.1,0.2-2.1,0.2-2.9,0.1c-0.8-0.1-1.4-0.3-1.9-0.4c-0.4-0.1-0.8-0.2-1.2-0.2
				c-0.8-0.1-1.6-0.1-2.3-0.1c-1.4,0-2.7,0.2-3.2-0.4c-0.5-0.6-0.2-2.1,1.6-3.5c0.9-0.7,2.1-1.3,3.6-1.5c0.7-0.1,1.6-0.2,2.4-0.1
				c0.8,0.1,1.4,0.2,2,0.3c0.5,0.1,0.9,0.1,1,0.1c0.1,0,0.1,0.1,0.4,0c0.5-0.2,1.7-1.3,2.9-1.7c1.2-0.4,2.2-0.3,2.9,0
				C348.5,499.8,348.7,500.2,348.7,500.6z"/>
		</g>
	</g>
</g>
<g id="XMLID_378_">
	<g id="XMLID_451_">
		<g id="XMLID_455_">
			<path id="XMLID_456_" d="M335.3,488.4c-0.2-0.8,1.4-2,4.1-3.2c1.4-0.6,3-1.3,5-1.9c2-0.6,4.5-1,7.4-0.5c0.3,0.1,0.6,0.1,0.9,0.2
				l0.4,0.1l0.2,0.1l0.3,0.1c0.4,0.2,1.1,0.4,1.9,1.3c0.4,0.4,0.7,1.2,0.8,1.8c0.1,0.7,0,1.2-0.1,1.5c-0.1,0.4-0.2,0.5-0.3,0.8
				c-0.1,0.2-0.2,0.4-0.3,0.6c-0.2,0.4-0.5,0.7-0.7,0.9c-0.5,0.5-0.9,0.8-1.2,1c-0.1,0-0.2,0-0.3,0.1c-0.1,0.1-0.2,0.2-0.2,0.4
				c0,0.1,0,0.2,0.1,0.3c0.1,0.1,0.1,0.2,0.5,0.5c0.6,0.5,1.2,1,1.6,1.4c0.8,0.9,1.2,1.6,1,2s-1,0.6-2.2,0.4
				c-0.6-0.1-1.3-0.2-2.2-0.4c-0.3-0.1-1.1-0.3-1.8-0.6c-0.7-0.3-1.4-0.8-1.9-1.4c-0.7-0.9-1-2.2-0.7-3.4c0.3-1.3,1.1-2.5,2.3-3.6
				c0.4-0.3,0.5-0.5,0.6-0.7c0-0.1,0.1-0.1,0.1-0.1c0,0,0.2,0.1,0.3,0.1l0.1,0l0.4,0.2l0.1,0l0.2,0c0.1,0,0.2,0.1,0.2,0.1l0.4,0.1
				c0.4,0.1,0.6,0.1,0.7,0.1c0,0,0,0-0.1,0.1c-0.2,0.2-0.5,0.6-0.9,1.6l-0.1,0.4l0,0l-0.1,0l-0.2-0.1c-0.2,0-0.3-0.1-0.5-0.1
				c-3.3-0.6-7.3,0.5-10.3,0.6C337.4,489.5,335.5,489.2,335.3,488.4z"/>
		</g>
	</g>
</g>
<g id="XMLID_386_">
	<g id="XMLID_459_">
		<g id="XMLID_463_">
			<path id="XMLID_464_" d="M347.9,474.7c-0.1,0.4-0.4,0.7-0.7,1.1c-0.4,0.3-0.8,0.6-1.4,0.9c-1.3,0.6-3.1,1-4.8,1.3
				c-1.5,0.3-2.9,0.6-4,0.8c-1.1,0.2-2.1,0.4-2.8,0c-0.7-0.4-0.9-1.7,0.1-3.3c0.5-0.8,1.3-1.5,2.2-2.1c1-0.6,2.1-1.1,3.3-1.3
				c2.4-0.5,4.3-0.1,5.8,0.3c0.8,0.2,1.4,0.6,1.8,1C347.9,473.9,348,474.3,347.9,474.7z"/>
		</g>
	</g>
</g>
<g id="XMLID_394_">
	<g id="XMLID_467_">
		<g id="XMLID_471_">
			<path id="XMLID_472_" d="M359.5,460.2c0.3,0.3,0.2,1-0.7,1.9c-0.5,0.4-1.1,0.8-2,1.1c-0.8,0.3-1.8,0.4-2.8,0.3c-1,0-2-0.2-3-0.3
				c-0.9-0.1-1.9-0.3-3-0.4c-2.1-0.2-4.3-0.4-6.7-0.4c-4.8,0-9.1,0.7-12.3,1.2c-1.6,0.3-2.7,0.5-3.6,0.7c-0.8,0.2-1.4,0.4-1.7,0.2
				c-0.3-0.2-0.4-1,0.3-2c0.6-1,2-2,3.6-2.8c3.2-1.7,8.1-3.2,13.7-3.2c2.8,0,5.4,0.3,7.8,0.9c1.2,0.3,2.3,0.6,3.2,1
				c0.9,0.3,1.7,0.7,2.4,1c0.7,0.3,1.2,0.4,1.7,0.5c0.5,0.1,1,0.1,1.4,0.2C358.6,460.1,359.2,459.9,359.5,460.2z"/>
		</g>
	</g>
</g>
<g id="XMLID_402_">
	<g id="XMLID_475_">
		<g id="XMLID_479_">
			<path id="XMLID_480_" d="M333.5,447.2c-0.2-0.8,1.6-2.2,5.1-3.8c1.7-0.7,3.9-1.5,6.5-1.9c1.3-0.2,2.7-0.3,4.2-0.3l0.6,0l0.3,0
				l0.5,0c0.7,0.1,1.3,0.1,2,0.2c1.3,0.2,2.6,0.4,3.9,0.7l0.8,0.2l0.7,0.2l0.5,0.3c0.2,0.1,0.3,0.2,0.4,0.3c0.5,0.4,0.8,0.8,1,1.1
				c0.2,0.3,0.5,0.8,0.6,1.5c0.1,0.7,0.1,1.4,0,2c-0.3,1.3-1.1,2.2-1.9,2.9c-0.9,0.6-1.9,1.1-3.1,1.3c-1.3,0.2-2.8,0.2-4.1,0.2
				c-1.5,0-1.8-0.1-2.4-0.1c-2.2-0.2-3.6-0.1-4-0.7c-0.1-0.3,0-0.8,0.6-1.3c0.6-0.5,1.5-1.1,2.8-1.5c0.6-0.2,1.6-0.4,1.6-0.5
				c0.2-0.1,0.3-0.2,0.4-0.3c0.1-0.2,0-0.4-0.2-0.5c-0.1-0.1-0.3-0.1-0.3,0c-0.1,0-0.1,0-0.1,0s0,0,0,0c0,0,0,0,0,0c0,0,0,0,0,0
				c0,0-0.1,0-0.2,0l-0.4,0c-1.1-0.1-2.3-0.1-3.4-0.1c-2.2,0.1-4.2,0.3-6,0.5C336.1,447.9,333.7,448,333.5,447.2z"/>
		</g>
	</g>
</g>
<g id="XMLID_410_">
	<g id="XMLID_483_">
		<g id="XMLID_487_">
			<path id="XMLID_488_" d="M366.9,434.5c-0.7,0.6-2.5-0.5-5.4-1.3c-2.8-0.8-7.1-1.1-10.8,0.7c-0.5,0.2-1.1,0.5-1.9,0.9
				c-0.8,0.3-2,0.6-2.8,0.6c-0.9,0-1.5,0-2-0.1c-0.6,0-1.2-0.1-1.7-0.1c-2.3-0.2-4.3-0.4-6-0.7c-3.4-0.6-5.5-1.3-5.5-2.2
				c0-0.8,2.1-1.6,5.6-2.1c1.7-0.3,3.8-0.5,6-0.6c0.6,0,1.1-0.1,1.7-0.1c0.6,0,1.2,0,1.6-0.1c0.4-0.1,0.4-0.1,0.9-0.3
				c0.4-0.2,0.9-0.5,1.6-0.8c2.9-1.4,6-1.7,8.6-1.4c2.7,0.3,4.9,1.2,6.5,2.3c1.7,1.1,2.7,2.3,3.3,3.2
				C367.1,433.6,367.2,434.2,366.9,434.5z"/>
		</g>
	</g>
</g>
<g id="XMLID_418_">
	<g id="XMLID_491_">
		<g id="XMLID_495_">
			<path id="XMLID_496_" d="M360.8,419.3c0.3,0.3,0.2,0.9-0.4,1.6c-0.6,0.7-1.9,1.4-3.5,1.6c-0.8,0.1-1.7,0.1-2.6,0
				c-0.9-0.1-1.9-0.4-2.8-0.7c-1.8-0.6-3.4-1.5-4.9-2.1c-2.7-1.2-5.6-1.2-7.8-1c-2.2,0.2-3.8,0.6-4.3-0.1c-0.2-0.3-0.2-0.9,0.3-1.6
				c0.5-0.7,1.3-1.6,2.6-2.3c1.3-0.7,3-1.4,5-1.5c2-0.2,4.3,0.1,6.5,1c2.1,0.9,3.6,1.9,4.9,2.6c0.6,0.4,1.2,0.7,1.7,0.9
				c0.5,0.2,1,0.4,1.5,0.6c0.9,0.3,1.7,0.4,2.3,0.5C360,418.9,360.5,419,360.8,419.3z"/>
		</g>
	</g>
</g>
<g id="XMLID_426_">
	<g id="XMLID_499_">
		<g id="XMLID_503_">
			<path id="XMLID_504_" d="M384.3,398.6c0.4,0.6-0.8,2.6-3.9,4.3c-3.1,1.7-8,2.9-13.2,2.4c-2.6-0.2-5.1-0.8-7.1-1.5
				c-1.9-0.7-3.3-1-4.3-1c-1,0-1.9,0.4-2.5,0.7c-0.6,0.3-1,0.8-1.4,0.8c-0.4,0-0.9-0.6-0.7-1.9c0.2-1.2,1.3-2.9,3.3-3.7
				c2.1-0.9,4.6-0.7,6.8-0.3c1.1,0.2,2,0.3,3.1,0.5c1.1,0.2,2.1,0.3,3.3,0.4c4.5,0.4,8.4,0.1,11.3-0.4
				C381.9,398.4,383.8,397.9,384.3,398.6z"/>
		</g>
	</g>
</g>
<g id="XMLID_434_">
	<g id="XMLID_507_">
		<g id="XMLID_511_">
			<path id="XMLID_512_" d="M372.8,413c0,0.8-0.5,1.6-1.3,2.2c-0.8,0.6-1.8,1.1-3,1.4c-1.2,0.3-2.3,0.3-3.3,0.1
				c-1-0.2-1.8-0.7-2.1-1.4c-0.3-0.7-0.1-1.7,0.6-2.5c0.7-0.9,2-1.6,3.5-2c1.5-0.3,3-0.2,4,0.3C372.1,411.4,372.7,412.2,372.8,413z"
				/>
		</g>
	</g>
</g>
<g id="XMLID_442_">
	<g id="XMLID_515_">
		<g id="XMLID_519_">
			<path id="XMLID_520_" d="M411.1,416.1c0.2,0.4,0,0.9-0.6,1.5c-0.3,0.3-0.6,0.6-1.1,0.9c-0.5,0.3-1,0.6-1.7,0.8
				c-0.3,0.1-0.7,0.2-1,0.4c-0.4,0.1-0.7,0.2-1.1,0.3c-0.8,0.2-1.6,0.3-2.5,0.3c-1.7,0.1-3.6,0.1-5.4-0.1c-1.8-0.2-3.5-0.4-5-0.6
				c-0.7-0.1-1.4-0.2-2-0.2c-0.3,0-0.6-0.1-0.9-0.1c-0.3,0-0.6,0-0.8-0.1c-2.1-0.2-3.7-0.1-4.1-0.9c-0.2-0.4,0-0.9,0.5-1.5
				c0.1-0.2,0.3-0.3,0.5-0.5c0.2-0.2,0.4-0.3,0.6-0.4c0.5-0.3,1-0.6,1.7-0.9c0.3-0.1,0.7-0.2,1-0.4c0.4-0.1,0.7-0.2,1.1-0.3
				c0.8-0.2,1.6-0.3,2.5-0.4c1.7-0.1,3.6-0.1,5.4,0.1c1.8,0.2,3.5,0.4,5,0.6c0.7,0.1,1.4,0.2,2.1,0.2c0.3,0,0.6,0.1,0.9,0.1
				c0.3,0,0.6,0,0.8,0.1C409.1,415.4,410.7,415.3,411.1,416.1z"/>
		</g>
	</g>
</g>
<g id="XMLID_450_">
	<g id="XMLID_523_">
		<g id="XMLID_527_">
			<path id="XMLID_528_" d="M411.3,404.8c0.1,0.4,0.1,0.8-0.3,1.3c-0.4,0.5-1,0.9-1.9,1.2c-1.8,0.6-4.2,0.4-6.2-0.1
				c-2.1-0.5-3.3-0.9-4.4-1.2c-0.5,0-0.4-0.2-0.6-0.3c-0.1-0.1-0.1-0.1-0.2-0.2c0,0-0.1-0.1-0.2-0.2c-0.1-0.1-0.1-0.1-0.2-0.2
				c-0.3-0.2-0.3-0.1-0.3-0.2c-0.1,0-0.2,0.1-0.3,0.1c-0.1,0.1-0.2,0.1-0.3,0.1c-0.1,0-0.2,0-0.3,0c-0.1,0-0.2,0-0.3-0.1
				c-0.2-0.2-0.4-0.7-0.3-1.2c0.1-0.5,0.4-0.9,0.7-1.3c0.3-0.4,1.1-0.7,1.3-0.9c0.2-0.2,0.9-0.4,1.5-0.6c0.5-0.1,1.1-0.2,1.7-0.3
				c1.2-0.1,2.4,0.1,3.5,0.3c2.2,0.5,3.7,1.2,4.8,1.7C410,403.6,411,404.1,411.3,404.8z"/>
		</g>
	</g>
</g>
<g id="XMLID_458_">
	<g id="XMLID_531_">
		<g id="XMLID_535_">
			<path id="XMLID_536_" d="M408,430.1c0.4,0.1,0.7,0.6,0.4,1.4c-0.3,0.7-1.1,1.4-1.8,1.8c-1.4,0.9-3.6,1.6-5.9,1.8
				c-2.2,0.2-4.4,0-5-0.3c-0.3-0.1-0.8-0.2-1.2-0.2c-0.4,0-0.8,0.1-1.2,0c-0.4-0.1-0.7-0.5-0.8-1.2c0-0.7,0.4-1.7,1.4-2.4
				c0.9-0.7,2.2-1.1,3.1-1.3c1-0.3,2-0.4,3.1-0.5c2.2-0.2,4-0.1,5.4,0.1c0.7,0.1,1,0.3,1.3,0.5C407.1,429.9,407.6,429.9,408,430.1z"
				/>
		</g>
	</g>
</g>
<g id="XMLID_466_">
	<g id="XMLID_539_">
		<g id="XMLID_543_">
			<path id="XMLID_544_" d="M404.7,443.5c0.3,0.8,0.1,1.7-0.6,2.3c-0.7,0.7-1.8,1-2.6,0.9c-0.8,0-1.2-0.3-1.6-0.8
				c-0.4-0.5-1-1-1.4-1.7c-0.5-0.7-0.5-1.6,0.3-2.4c0.4-0.4,0.8-0.7,1.4-0.9c0.5-0.2,1-0.3,1.5-0.3c0.9,0,1.4,0.4,1.9,0.9
				C403.9,442.1,404.3,442.7,404.7,443.5z"/>
		</g>
	</g>
</g>
<g id="XMLID_474_">
	<g id="XMLID_547_">
		<g id="XMLID_551_">
			<path id="XMLID_552_" d="M412.4,451.2c0.4,0.2,0.7,0.6,0.7,1.2c0,0.7-0.3,1.6-0.9,2.4c-0.7,0.9-1.7,1.6-2.9,2.2
				c-1.2,0.6-2.5,0.9-3.7,1.1c-2.4,0.4-3.8,0.5-5,0.7c-0.6,0.1-1.2,0.2-1.6,0.3c-0.5,0.1-0.9,0.1-1.3,0c-0.4-0.2-0.6-0.6-0.7-1.2
				c0-0.7,0.3-1.5,1-2.4c0.7-0.9,1.7-1.6,2.9-2.2c1.2-0.6,2.5-0.9,3.7-1.1c2.4-0.4,3.7-0.5,4.9-0.7c0.6-0.1,1.1-0.2,1.6-0.3
				C411.5,451.1,412,451,412.4,451.2z"/>
		</g>
	</g>
</g>
<g id="XMLID_482_">
	<g id="XMLID_555_">
		<g id="XMLID_559_">
			<path id="XMLID_560_" d="M416.2,467.2c0.3,0.2,0.6,0.6,0.5,1.3c-0.1,0.6-0.4,1.5-1.2,2.2c-0.7,0.7-1.8,1.4-3,1.7
				c-0.6,0.2-1.3,0.3-1.9,0.4c-0.6,0.1-1.3,0.1-1.8,0c-1.2-0.1-2.2-0.2-2.9-0.3c-0.4-0.1-0.8-0.1-1.1-0.2c-0.3-0.1-0.5-0.1-0.6-0.2
				c-0.1,0-0.1-0.1-0.2-0.1c-0.1,0-0.1-0.1-0.2-0.1c-0.2-0.1-0.3-0.1-0.5-0.1c-0.2,0-0.4,0.1-0.6,0.1c-0.2,0.1-0.4,0.2-0.6,0.2
				c-0.2,0-0.4,0-0.6-0.1c-0.2-0.2-0.4-0.4-0.4-0.8c-0.1-0.4,0-0.9,0.2-1.4c0.1-0.3,0.3-0.5,0.5-0.8c0.2-0.2,0.4-0.5,0.7-0.7
				c0.5-0.4,1.1-0.7,1.7-0.9c0.5-0.2,1.1-0.3,1.7-0.4c1.2-0.2,2.4-0.2,3.4-0.2c0.9,0.1,1.8,0.1,2.6,0.2c0.7,0,1.3,0,1.9,0
				c0.5,0,1,0,1.5,0C415.3,466.9,415.8,466.9,416.2,467.2z"/>
		</g>
	</g>
</g>
<g id="XMLID_490_">
	<g id="XMLID_563_">
		<g id="XMLID_567_">
			<path id="XMLID_568_" d="M423.8,492.2c0,0.6-1,1.1-2.7,1.5c-0.4,0.1-0.9,0.2-1.4,0.3c-0.1,0-0.3,0.1-0.4,0.1
				c-0.2,0-0.5,0.1-0.7,0.1c-0.5,0.1-1,0.1-1.5,0.2c-2.4,0.3-5.1,0.6-8,0.9c0-0.3,0-0.6,0.1-0.9c0-0.2,0.1-0.8,0.3-1.3
				c0.3-1,0.4-1.8,0.8-2.7c0.4-0.9,1-2,2.1-3.1c0.5-0.5,1.2-1.1,1.8-1.7c0.3-0.3,0.7-0.6,0.9-0.8c0.1-0.1,0.2-0.2,0.3-0.3
				c0.6-0.7,0.7-1.1,0.8-1.3c0-0.3-0.1-0.9-0.5-1.3c-0.6-0.8-2.2-1.3-3.5-1.4c-2.8-0.1-4.8,0.9-5.4,0.2c-0.3-0.3-0.1-1,0.6-1.9
				c0.7-0.9,2.1-1.9,4.1-2.5c1-0.3,2.2-0.5,3.6-0.3c1.4,0.2,2.9,0.7,4.3,1.9c1.3,1.2,2.4,2.8,2.6,5.1c0,0.5,0,1.1-0.1,1.7
				c-0.1,0.3-0.1,0.5-0.2,0.8c-0.1,0.3-0.2,0.5-0.3,0.8c-0.4,1-1,1.8-1.6,2.4c-0.2,0.2-0.4,0.4-0.6,0.6c-0.1,0.1,0,0,0,0
				c0,0,0,0,0,0c0,0-0.1,0-0.1,0c-0.1,0-0.5,0.3-0.5,0.4c0,0.1,0,0.3,0.3,0.5c0.1,0,0.1,0.1,0.2,0.1l0.1,0.1c0.1,0,0.3,0,0.4,0.1
				c0.5,0.1,1,0.2,1.5,0.3C422.8,491.1,423.8,491.7,423.8,492.2z"/>
		</g>
	</g>
</g>
<g id="XMLID_498_">
	<g id="XMLID_571_">
		<g id="XMLID_575_">
			<path id="XMLID_576_" d="M417.7,358.3c0,0.4-0.5,0.8-1.4,1c-0.9,0.2-2.3,0-3.7-0.5c-1.5-0.5-3-1.4-4.5-2.3
				c-1.5-0.9-3.2-2.1-4.9-3.3c-6.6-5.1-10.8-10.6-9.8-11.8c1.1-1.2,6.9,2.1,13.4,7.1c1.6,1.2,3.1,2.5,4.5,3.6c1.4,1.2,2.4,2.2,3.3,3
				c0.9,0.8,1.6,1.4,2.2,1.9C417.3,357.5,417.7,357.9,417.7,358.3z"/>
		</g>
	</g>
</g>
<g id="XMLID_506_">
	<g id="XMLID_579_">
		<g id="XMLID_583_">
			<path id="XMLID_584_" d="M427.7,351.2c0,0.4-0.3,0.8-1.1,1.1c-0.7,0.2-1.9,0.2-3.2-0.2c-1.3-0.4-2.5-1.2-3.7-2.1
				c-1.2-0.9-2.3-1.9-3.5-3.1c-2.3-2.4-3.9-4.9-4.8-7c-0.9-2-1-3.5-0.3-4c1.4-0.9,5.3,2.4,9.5,6.9c1,1.1,2,2.2,2.9,3.2
				c0.8,1,1.5,1.8,2.1,2.4c0.6,0.6,1.1,1.1,1.5,1.6C427.4,350.4,427.7,350.8,427.7,351.2z"/>
		</g>
	</g>
</g>
<g id="XMLID_514_">
	<g id="XMLID_587_">
		<g id="XMLID_591_">
			<path id="XMLID_592_" d="M429,363.1c0.4-0.1,0.9,0.1,1.3,0.9c0.4,0.8,0.4,2.2-0.3,3.7c-0.4,0.7-1,1.5-1.7,2
				c-0.7,0.6-1.6,1-2.5,1.3c-1.8,0.6-3.7,0.7-5.2,0.7c-1.5,0.1-2.5,0.2-3.5,0.5c-1,0.3-1.9,0.7-2.7,1.2c-1.6,0.9-2.7,1.8-3.5,1.4
				c-0.4-0.2-0.6-0.6-0.6-1.4c0-0.8,0.3-1.8,1-3c0.7-1.1,1.8-2.3,3.4-3.2c0.8-0.5,1.7-0.8,2.7-1.1c1-0.2,2-0.3,2.9-0.4
				c1.8-0.1,3.1,0,4.1-0.1c0.5,0,0.9-0.1,1.3-0.2c0.4-0.1,0.6-0.2,0.9-0.3c0.6-0.3,1-0.7,1.4-1.1C428.4,363.7,428.7,363.2,429,363.1
				z"/>
		</g>
	</g>
</g>
<g id="XMLID_522_">
	<g id="XMLID_595_">
		<g id="XMLID_599_">
			<path id="XMLID_600_" d="M424.2,385.9c0.4,0.7-0.4,2-2.3,3c-0.9,0.5-2.1,0.9-3.4,1.2c-1.3,0.3-2.7,0.3-4.2,0.3
				c-2.9-0.1-5.2-0.5-6.9-0.9c-0.8-0.2-1.4-0.4-1.9-0.6c-0.5-0.2-0.9-0.4-1.1-0.8c-0.2-0.4-0.1-0.9,0.4-1.4c0.5-0.5,1.3-1,2.3-1.4
				c2-0.7,4.6-0.9,7.3-0.8c2.7,0.1,4.9,0.2,6.5,0.4C422.6,384.9,423.8,385.1,424.2,385.9z"/>
		</g>
	</g>
</g>
<g id="XMLID_530_">
	<g id="XMLID_603_">
		<g id="XMLID_607_">
			<path id="XMLID_608_" d="M180.6,433.3c-0.2,0.8-1.4,1.2-3,1.4c-1.6,0.2-3.7,0.3-6,0.3c-2.3,0-4.4-0.1-6-0.3
				c-1.6-0.2-2.8-0.7-3-1.5c-0.2-0.8,0.6-1.8,2.2-2.7c1.6-0.9,4.1-1.5,6.8-1.5c2.8,0,5.2,0.7,6.8,1.6
				C180,431.5,180.8,432.5,180.6,433.3z"/>
		</g>
	</g>
</g>
<g id="XMLID_538_">
	<g id="XMLID_611_">
		<g id="XMLID_615_">
			<path id="XMLID_616_" d="M163.4,441.9c0.2,0.8-0.1,1.6-0.6,2.4c-0.5,0.8-1.2,1.4-2,2c-0.8,0.6-1.7,1-2.6,1.2
				c-0.9,0.2-1.8,0.2-2.5-0.2c-0.7-0.4-1-1.3-0.8-2.5c0.2-1.1,1.1-2.5,2.4-3.4c1.4-0.9,2.9-1.3,4-1.1
				C162.5,440.5,163.3,441.1,163.4,441.9z"/>
		</g>
	</g>
</g>
<g id="XMLID_546_">
	<g id="XMLID_619_">
		<g id="XMLID_623_">
			<path id="XMLID_624_" d="M182.3,444.2c-0.5,0.7-1.3,1.1-2.2,1c-1,0-2.1-0.5-3-1.4c-0.9-0.9-1.4-2-1.4-2.9c-0.1-1,0.3-1.8,1-2.2
				c0.7-0.5,1.5-0.5,2.4-0.4c0.8,0.2,1.6,0.6,2.3,1.2c0.7,0.7,1.1,1.4,1.3,2.3C182.8,442.6,182.7,443.5,182.3,444.2z"/>
		</g>
	</g>
</g>
<g id="XMLID_554_">
	<g id="XMLID_627_">
		<g id="XMLID_631_">
			<path id="XMLID_632_" d="M173.1,457.2c-0.2,0.8-1,1.4-1.9,2c-0.9,0.5-2,1.1-3.2,1.8c-1.2,0.7-2.3,1.4-3.1,1.9
				c-1,0.6-1.9,1-2.7,0.8c-0.8-0.2-1.3-1.3-1-2.9c0.3-1.6,1.5-3.6,3.7-4.9c2.2-1.3,4.6-1.4,6.1-0.9
				C172.6,455.4,173.2,456.4,173.1,457.2z"/>
		</g>
	</g>
</g>
<g id="XMLID_562_">
	<g id="XMLID_635_">
		<g id="XMLID_639_">
			<ellipse id="XMLID_640_" cx="166.9" cy="474" rx="4.3" ry="3"/>
		</g>
	</g>
</g>
<g id="XMLID_570_">
	<g id="XMLID_643_">
		<g id="XMLID_647_">
			<path id="XMLID_648_" d="M189.1,469.3c-0.1,0.8-0.7,1.5-1.4,2c-0.8,0.5-1.7,0.9-2.8,1.1c-1.1,0.2-2.1,0.2-3,0.1
				c-0.9-0.2-1.7-0.6-2.1-1.3c-0.4-0.7-0.3-1.7,0.4-2.6c0.7-0.9,1.9-1.7,3.5-2.1c1.6-0.3,3-0.1,4,0.5
				C188.7,467.6,189.2,468.4,189.1,469.3z"/>
		</g>
	</g>
</g>
<g id="XMLID_578_">
	<g id="XMLID_651_">
		<g id="XMLID_655_">
			<path id="XMLID_656_" d="M182.8,478.4c0.4,0.5,0.2,1.3-0.1,2.3c-0.2,0.5-0.4,1-0.6,1.6c-0.1,0.3-0.2,0.6-0.4,0.9l-0.1,0.1
				c0,0-0.1,0.2-0.1,0.2c-0.1,0.2-0.2,0.3-0.3,0.5c-0.2,0.3-0.5,0.6-0.8,0.9c-0.4,0.3-0.9,0.6-1.4,0.8c-0.3,0.1-0.5,0.2-0.8,0.2
				c-0.3,0.1-0.7,0.1-0.8,0.1c-0.6,0.1-1.3,0.2-1.9,0.2c-2.6,0.2-4.5,0.2-5.9,0.3c-0.4,0-0.7,0.1-1,0c-0.3,0-0.5,0-0.7-0.1
				c-0.5,0-0.9,0-1.2-0.2c-0.4-0.2-0.7-0.7-0.5-1.4c0.1-0.4,0.3-0.8,0.6-1.2c0.3-0.4,0.6-0.7,1-1.1c0.8-0.7,2-1.3,3.3-1.7
				c1.3-0.4,2.7-0.6,4-0.7c0.6,0,1.3-0.1,1.8-0.1c0.2,0,0.1,0,0.1,0l0,0c0,0,0.1,0,0.1,0.1c0,0,0.1,0,0.1,0l0.1,0c0,0,0,0,0,0
				l0.1-0.1c0.3-0.3,0.7-0.7,1-0.9c0.7-0.5,1.3-0.9,1.9-1.1C181.6,477.8,182.4,477.9,182.8,478.4z"/>
		</g>
	</g>
</g>
<g id="XMLID_586_">
	<g id="XMLID_659_">
		<g id="XMLID_663_">
			<path id="XMLID_664_" d="M181.8,448.1c0.4,0,0.8,0.2,1.1,0.8c0.3,0.6,0.2,1.6-0.2,2.4c-0.3,0.9-0.9,1.6-1.3,2.2
				c-0.4,0.5-0.7,1.1-1.1,1.7c-0.8,1.2-1.5,2.2-2.2,3.1c-0.7,0.9-1.4,1.6-2.3,1.6c-0.8,0-1.6-0.8-1.9-2.4c-0.3-1.5,0.1-3.8,1.4-5.8
				c0.7-1,1.5-1.8,2.4-2.4c0.8-0.5,1.3-0.7,1.8-0.8c0.4-0.1,0.8-0.1,1.2-0.2C181,448.3,181.4,448.1,181.8,448.1z"/>
		</g>
	</g>
</g>
<g id="XMLID_594_">
	<g id="XMLID_667_">
		<g id="XMLID_671_">
			<path id="XMLID_672_" d="M136.1,441.5c0.4-0.1,1,0.1,1.1,1.1c0.1,0.9-0.4,2.3-1.8,3.1c-1.4,0.8-3,0.8-4.1,0.9
				c-1,0.1-2.2,0.2-3.4,0.3c-2.4,0.2-4.5,0.5-6.3,0.6c-0.4,0-0.8,0-1.2,0c-0.4,0-0.5-0.1-0.8-0.2c-0.5-0.1-0.8,0-1.1-0.3
				c-0.3-0.3-0.7-0.9-0.3-1.6c0.1-0.3,0.6-0.8,0.8-1c0.3-0.3,0.6-0.6,1-0.9c1.6-1.2,4.2-2.3,7.2-2.6c1.5-0.1,3-0.1,4.3,0.2
				c1.3,0.3,1.9,0.5,2.1,0.6c0.3,0.2,0.7,0.2,1.1,0.2C135.4,441.9,135.7,441.6,136.1,441.5z"/>
		</g>
	</g>
</g>
<g id="XMLID_602_">
	<g id="XMLID_675_">
		<g id="XMLID_679_">
			<path id="XMLID_680_" d="M138.1,429.3c0.2,0.8-0.8,1.8-2.4,2.7c-0.8,0.4-1.8,0.9-2.9,1.3c-1.1,0.4-2.4,0.7-3.6,1
				c-2.4,0.6-4.1,1-5.5,1.6c-1.3,0.5-2.4,1.1-3.1,0.8c-0.4-0.2-0.6-0.6-0.6-1.3c0-0.7,0.3-1.6,0.9-2.6c0.6-1,1.6-1.9,2.8-2.7
				c1.2-0.8,2.7-1.3,4.1-1.6c1.4-0.3,2.7-0.5,3.9-0.6c1.2-0.1,2.3-0.1,3.2,0C136.7,427.9,138,428.5,138.1,429.3z"/>
		</g>
	</g>
</g>
<g id="XMLID_610_">
	<g id="XMLID_683_">
		<g id="XMLID_687_">
			<path id="XMLID_688_" d="M124.3,421.5c0.7,1.5-1.2,3.9-4,5.6c-0.7,0.4-1.4,0.8-2.1,1.1c-0.7,0.3-1.2,0.4-1.6,0.4
				c-0.4,0.1-0.8,0-1.2,0.1c-0.4,0-0.8,0.1-1.2,0c-0.4-0.1-0.7-0.4-0.9-1c-0.1-0.6,0-1.4,0.4-2.1c0.4-0.8,1-1.5,1.6-2
				c0.6-0.6,1.3-1.1,2.1-1.6C120.3,420.1,123.6,420.1,124.3,421.5z"/>
		</g>
	</g>
</g>
<g id="XMLID_618_">
	<g id="XMLID_691_">
		<g id="XMLID_695_">
			<path id="XMLID_696_" d="M142.3,423.5c-0.7,0.5-1.7,0.3-2.9,0.2c-1.2-0.1-2.5-0.3-4.1-0.2c-1.6,0-3.3,0.2-4.8,0.1
				c-0.8,0-1-0.3-1.5-0.3c-0.4-0.1-0.6-0.1-0.9-0.3c-0.3-0.3-0.7-0.8-0.6-1.5c0.1-0.3,0.3-0.7,0.6-1c0.4-0.4,0.6-0.6,0.9-0.8
				c1.2-1,3.3-2.1,6.1-2.1c2.8-0.1,5.4,1.2,6.5,2.7c0.6,0.7,0.9,1.5,1,2.1C142.8,422.8,142.6,423.2,142.3,423.5z"/>
		</g>
	</g>
</g>
<g id="XMLID_626_">
	<g id="XMLID_699_">
		<g id="XMLID_703_">
			<path id="XMLID_704_" d="M140.5,435.4c1.6-0.3,3.4,1.8,3.7,4.8c0.3,3-1.1,5.4-2.8,5.4c-1.7,0-2.9-2.2-3.2-4.9
				C138,438.1,138.9,435.7,140.5,435.4z"/>
		</g>
	</g>
</g>
<g id="XMLID_634_">
	<g id="XMLID_707_">
		<g id="XMLID_711_">
			
				<ellipse id="XMLID_712_" transform="matrix(0.9983 -5.873374e-002 5.873374e-002 0.9983 -26.7271 8.4522)" cx="130.4" cy="458.9" rx="10" ry="3"/>
		</g>
	</g>
</g>
<g id="XMLID_642_">
	<g id="XMLID_715_">
		<g id="XMLID_719_">
			<path id="XMLID_720_" d="M418.9,503.7c-0.1,0.9-5.6,0.9-14.4,1.2c-4.4,0.2-9.6,0.5-15.3,1.1c-5.7,0.6-12,1.5-18.5,2.8
				c-13,2.5-24.6,6.2-32.8,9.2c-2,0.8-3.7,1.5-5.2,2.3c-1.4,0.8-2.6,1.6-3.5,2.3c-1.8,1.4-2.7,2.6-3.1,2.3c-0.3-0.2-0.2-1.7,1.4-3.9
				c0.8-1.1,1.9-2.3,3.4-3.5c1.5-1.2,3.3-2.3,5.3-3.4c4.1-2.1,9-4.2,14.6-6.2c5.6-2,12-3.7,18.7-5.1c6.8-1.3,13.3-2.1,19.3-2.4
				c6-0.3,11.3-0.2,15.8,0.2C413.5,501.5,418.9,503,418.9,503.7z"/>
		</g>
	</g>
</g>
<g id="XMLID_650_">
	<g id="XMLID_723_">
		<g id="XMLID_727_">
			<path id="XMLID_728_" d="M327.8,522.8c0.8-0.4,2.8,2.1,6.7,5.1c1.9,1.5,4.4,3.1,7.2,4.5c1.4,0.7,3,1.3,4.6,1.8
				c1.6,0.5,3.4,0.9,5.1,1.2c0.9,0.1,1.7,0.2,2.7,0.3c0.9,0.1,2,0.1,3,0.3c1.1,0.1,2.2,0.4,3.3,0.8c1.1,0.4,2.1,1,3,1.6
				c1.7,1.3,2.9,2.6,3.9,3.9c1,1.2,1.8,2.4,2.6,3.3c1.5,1.9,2.9,3,4,3.7c1.1,0.7,1.9,1,1.9,1.4c0,0.4-0.8,0.9-2.6,0.8
				c-0.9-0.1-1.9-0.3-3-0.8c-1.1-0.5-2.2-1.2-3.3-2.1c-1.1-0.9-2.2-1.9-3.3-3c-1.1-1-2.2-2-3.4-2.7c-1.2-0.7-2.2-1-3.8-1.1
				c-0.8-0.1-1.7-0.1-2.7-0.1c-1,0-2.1-0.2-3.2-0.3c-2.2-0.3-4.2-0.9-6.2-1.5c-1.9-0.7-3.7-1.6-5.3-2.5c-3.2-1.9-5.8-4.2-7.6-6.3
				C327.9,526.6,327.1,523.2,327.8,522.8z"/>
		</g>
	</g>
</g>
<path id="XMLID_658_" class="st0" d="M355.4,560.3c0,0-33.8-14.3-43.5-48c-9.2-31.9-11.7-71.9-1.8-85.3c0.9-1.3,1.8-2.5,2.6-3.9
	c1.8-3.4,7.6-10.5,26.6-17.3l-18.1-0.8c-0.7,0-1.4,0-2.2,0.1c-6.7,1.3-38.7,10.3-37.9,66.9c0.8,63.2-50.5,75.7-58,83.2"/>
<g id="XMLID_674_">
	<g id="XMLID_732_">
		<g id="XMLID_736_">
			<path id="XMLID_737_" d="M193.9,398.6c-0.2,0.8-1.7,1.1-3.9,0.9c-2.2-0.3-5.2-1.3-8.1-3.3c-2.9-2-4.9-4.8-5.7-7
				c-0.8-2.3-0.5-4,0.4-4.1c0.8-0.2,1.8,0.6,3.2,1.9c1.4,1.2,3.3,2.8,5.6,4.4C189.9,394.5,194.4,396.9,193.9,398.6z"/>
		</g>
	</g>
</g>
<g id="XMLID_666_">
	<g id="XMLID_740_">
		<g id="XMLID_744_">
			<path id="XMLID_745_" d="M307.9,416.5c0.4,0.7,0.5,1.5,0.4,2.3c-0.1,0.7-0.4,1.4-0.9,1.8c-0.5,0.5-1.1,0.8-1.8,0.9
				c-0.7,0.1-1.5,0.1-2.3-0.3c-0.7-0.4-1.2-1.1-1.3-2c-0.1-0.9,0.3-1.9,1.1-2.8c0.8-0.8,1.9-1.2,2.8-1.1
				C306.8,415.3,307.5,415.7,307.9,416.5z"/>
		</g>
	</g>
</g>
<g id="XMLID_682_">
	<g id="XMLID_748_">
		<g id="XMLID_752_">
			<path id="XMLID_753_" d="M299.5,424.4c0.5,0.7,0.6,1.5,0.6,2.3c0,0.8-0.3,1.5-0.7,2.1c-0.4,0.6-1.1,1.1-1.8,1.4
				c-0.7,0.3-1.5,0.4-2.3,0.1c-0.8-0.3-1.4-0.9-1.5-1.9c-0.2-0.9,0.1-2.1,0.8-3.1c0.7-1,1.8-1.6,2.7-1.7
				C298.2,423.4,299,423.7,299.5,424.4z"/>
		</g>
	</g>
</g>
<g id="XMLID_690_">
	<g id="XMLID_756_">
		<g id="XMLID_760_">
			<path id="XMLID_761_" d="M295.1,433c0.8,0.2,1.3,1.2,1.6,2.8c0.2,1.5,0.1,3.6-0.3,5.7c-0.4,2-0.8,3.6-1.1,4.8
				c-0.2,0.6-0.4,1.2-0.6,1.6c-0.2,0.4-0.5,0.8-0.8,1c-0.4,0.2-0.8,0.2-1.4-0.2c-0.5-0.4-1-1-1.4-1.8c-0.8-1.6-1-4.1-0.6-6.5
				c0.4-2.4,1.2-4.2,2.1-5.5C293.4,433.6,294.3,432.8,295.1,433z"/>
		</g>
	</g>
</g>
<g id="XMLID_698_">
	<g id="XMLID_764_">
		<g id="XMLID_768_">
			<path id="XMLID_769_" d="M292.9,474.5c-1.7,0-3-3.6-3.1-8c0-1.1,0.1-2.2,0.2-3.1c0.1-0.5,0.2-1,0.3-1.4c0.1-0.4,0.2-0.7,0.3-1
				c0.2-0.6,0.4-1,0.6-1.4c0.2-0.4,0.4-0.8,0.8-1c0.3-0.2,0.8-0.3,1.4,0.1c0.6,0.3,1.1,1,1.5,1.9c0.2,0.4,0.3,0.9,0.5,1.4
				c0.1,0.5,0.2,0.9,0.3,1.4c0.2,1,0.3,2,0.3,3.2C295.9,470.9,294.6,474.6,292.9,474.5z"/>
		</g>
	</g>
</g>
<g id="XMLID_706_">
	<g id="XMLID_772_">
		<g id="XMLID_776_">
			<path id="XMLID_777_" d="M293.5,498.8c-1.7,0-3-3.9-3-8.7c0-4.9,1.3-8.8,3-8.8c1.7,0,3,3.9,3,8.7
				C296.5,494.8,295.2,498.8,293.5,498.8z"/>
		</g>
	</g>
</g>
<g id="XMLID_713_">
	<g id="XMLID_780_">
		<g id="XMLID_784_">
			
				<ellipse id="XMLID_785_" transform="matrix(2.809989e-002 0.9996 -0.9996 2.809989e-002 805.6997 211.9231)" cx="293.9" cy="520.3" rx="12.8" ry="3"/>
		</g>
	</g>
</g>
<g id="XMLID_721_">
	<g id="XMLID_788_">
		<g id="XMLID_792_">
			<path id="XMLID_793_" d="M292.2,570c-1.7-0.1-2.5-6.4-2.3-14.1c0.2-7.6,1.3-13.9,3-13.9c1.6-0.1,3.2,6.2,3,14.1
				C295.7,564,293.9,570.2,292.2,570z"/>
		</g>
	</g>
</g>
<path id="XMLID_731_" class="st0" d="M378.4,515.2c-0.3-0.6,1-61.1,1.2-81.3c0-4,0-6.4,0-6.5"/>
<g id="XMLID_739_">
	<g id="XMLID_797_">
		<g id="XMLID_801_">
			<path id="XMLID_802_" d="M386.4,441.9c0,0.3-0.3,0.6-0.7,0.9c-0.2,0.1-0.5,0.2-0.9,0.3c-0.3,0-0.8,0.1-1.2,0
				c-0.5,0-1-0.2-1.5-0.3c-0.5-0.2-1.1-0.5-1.6-0.9c-0.6-0.4-1.1-0.9-1.5-1.4l-0.1-0.1c0,0,0,0,0,0c0,0,0,0,0,0l-0.1,0
				c0,0-0.1,0-0.1,0c-0.1,0-0.1,0.1-0.1,0.1l0,0c0,0,0-0.1,0-0.2c0,0-0.1-0.1-0.2-0.1c0,0-0.1,0-0.1,0c-0.2,0.2-0.4,0.3-0.6,0.5
				c-0.8,0.6-1.6,1-2.3,1.3c-1.4,0.6-2.5,0.5-2.8-0.1c-0.3-0.6,0-1.4,0.6-2.6c0.3-0.6,0.7-1.2,1.1-2c0.1-0.2,0.2-0.3,0.3-0.6
				c0.3-0.4,0.5-0.8,0.8-1.2c0.6-0.8,1.1-1.9,1.7-2.9c0.4,0,0.7,0.1,1.1,0.2c0.2,0,0.5,0.1,0.8,0.1c0.2,0,0.4,0.1,0.5,0.1l0.4,0.1
				l0,0c0.3,0.1,1,0.3,2.7,0.9c0,0.2,0,0.4,0.1,0.6l0.1,0.5c0.1,0.3,0.1,0.6,0.2,1c0.1,0.3,0.1,0.6,0.3,0.8c0.1,0.1,0.1,0.2,0.2,0.3
				l0.1,0.1l0,0.1c0.1,0.3,0.3,0.6,0.4,0.9c0.1,0.3,0.3,0.5,0.5,0.8c0.2,0.2,0.4,0.5,0.6,0.7c0.2,0.2,0.4,0.4,0.6,0.6
				c0.2,0.2,0.4,0.3,0.5,0.5C386.3,441.2,386.4,441.5,386.4,441.9z"/>
		</g>
	</g>
</g>
<g id="XMLID_747_">
	<g id="XMLID_805_">
		<g id="XMLID_809_">
			<path id="XMLID_810_" d="M390.9,455.8c0,0.4-0.4,0.8-1.3,1.1c-0.9,0.3-2.2,0.4-3.8,0c-1.6-0.4-3.5-1.3-5.1-2.8
				c-0.4-0.4-0.8-0.8-1.1-1.2l-0.3-0.3c-0.1-0.1-0.2-0.3-0.2-0.2c0,0,0,0,0,0c0,0,0,0.1,0,0.1l0,0c0,0,0,0,0-0.1c0,0,0,0,0,0
				c0,0,0.1-0.1-0.2,0.2c-0.4,0.4-0.8,0.7-1.2,1.1c-1.6,1.3-3.3,2.3-4.8,2.8c-1.6,0.5-3,0.6-3.9,0.4c-1-0.2-1.5-0.6-1.4-1.1
				c0.1-0.8,1.5-1.5,3.3-3.1c0.9-0.8,1.9-1.8,3-3.1c0.3-0.3,0.5-0.6,0.8-1c0-0.1,0.5-0.6,0.8-0.9c0.3-0.4,0.6-0.8,0.9-1.3
				c1.2-1.7,2.5-3.5,3.8-5.3l0.5-0.7c0.4,1.2,0.8,2.5,1.3,3.7c0.2,0.6,0.4,1.2,0.6,1.8c0.2,0.6,0.4,1.1,0.6,1.5
				c0.2,0.4,0.5,0.9,0.7,1.3c0.1,0.2,0.3,0.4,0.4,0.7c0.2,0.3,0.4,0.6,0.6,0.9c0.9,1.1,1.8,2,2.7,2.7
				C389.2,454.3,390.9,454.9,390.9,455.8z"/>
		</g>
	</g>
</g>
<g id="XMLID_755_">
	<g id="XMLID_813_">
		<g id="XMLID_817_">
			<path id="XMLID_818_" d="M393.2,467.2c0,0.8-1.9,1.6-5.1,1.3c-1.6-0.2-3.5-0.6-5.5-1.6c-1-0.5-2-1.1-2.9-1.8
				c-0.5-0.4-0.9-0.8-1.4-1.2c-0.1-0.1-0.1,0-0.1-0.1l0,0l0,0c0,0,0,0,0,0l0,0c0,0,0,0,0,0c0,0-0.1,0-0.1,0l0,0l-0.2,0.1l-0.3,0.2
				c-0.2,0.2-0.4,0.3-0.7,0.5c-0.4,0.3-0.9,0.5-1.4,0.8c-1.9,0.9-3.8,1.2-5.3,1.2c-3.1-0.1-4.6-1.5-4.4-2.2c0.2-0.7,1.8-1,3.8-1.8
				c1-0.4,2.1-1,3.1-1.8c0.3-0.2,0.5-0.4,0.8-0.7l0.4-0.4l0.2-0.2c0,0,0.1,0,0.1-0.1l0.2-0.3c0.6-0.7,1.2-1.4,1.9-2.1
				c0.6-0.8,1.3-1.5,2-2.3c0.7,0.8,1.3,1.6,2,2.4c0.7,0.9,1.5,1.8,2.1,2.4c0.3,0.3,0.6,0.6,1,0.9c0.6,0.6,1.3,1.1,2,1.6
				c1.3,1,2.6,1.7,3.8,2.3C391.5,465.6,393.2,466.3,393.2,467.2z"/>
		</g>
	</g>
</g>
<g id="XMLID_763_">
	<g id="XMLID_821_">
		<g id="XMLID_825_">
			<path id="XMLID_826_" d="M397.7,478.4c0.1,0.4-0.3,0.9-1.4,1.6c-0.6,0.2-1.3,0.5-2.2,0.7c-0.4,0.1-0.9,0.1-1.4,0.1
				c-0.5,0-1,0-1.6-0.1c-2.2-0.2-4.7-1-7.1-2.4c-1.2-0.7-2.4-1.4-3.6-2.3c-0.3-0.2-0.6-0.4-0.9-0.7c-0.3-0.2-0.5-0.4-0.8-0.6
				l-0.1-0.1c0,0-0.1-0.1-0.1,0l0,0l0,0l0,0c-0.3,0.2-0.6,0.3-0.9,0.5c-0.7,0.4-1.4,0.7-2.1,1c-1.3,0.7-2.7,1.2-4.1,1.7
				c-2.7,0.9-5.3,1.5-7.6,1.4c-2.3,0-4.4-0.7-5.4-1.7c-1.1-1-1.1-2-0.7-2.2c0.4-0.2,0.9,0,1.8,0.1c0.9,0.1,2.2,0,3.9-0.4
				c1.7-0.4,3.7-1.3,5.9-2.3c1.1-0.6,2.3-1.1,3.5-1.8c0.6-0.3,1.2-0.6,1.8-1c1-0.6,2-1.2,3-1.8c0.6-0.3,1.2-0.7,1.8-1
				c0.5,0.5,1,1.1,1.6,1.6l0.4,0.4l0.3,0.3l0.7,0.6c0.3,0.3,0.6,0.5,0.8,0.8c0.2,0.2,0.5,0.4,0.7,0.6c1,0.8,1.9,1.6,2.9,2.3
				c1.9,1.3,3.6,2.3,5.2,3c1.5,0.7,2.8,0.8,3.8,1.1C396.9,477.8,397.6,478,397.7,478.4z"/>
		</g>
	</g>
</g>
<g id="XMLID_771_">
	<g id="XMLID_829_">
		<g id="XMLID_833_">
			<path id="XMLID_834_" d="M399.5,489.9c0,0.8-2.4,1.6-6.4,1.4c-2-0.1-4.4-0.5-6.9-1.3c-1.3-0.4-2.6-0.9-3.9-1.6
				c-0.7-0.3-1.3-0.7-2-1l-0.5-0.3l-0.1-0.1c0,0,0,0,0,0c0,0,0,0,0,0l0,0c0,0,0,0,0,0c0,0,0,0,0,0c0,0,0,0,0,0c0,0,0,0-0.2,0.3
				c-0.3,0.3-0.6,0.6-1,0.9c-1.4,1.1-2.9,1.7-4.2,2c-2.7,0.6-5,0.3-6.8,0c-3.6-0.8-5.4-2.2-5.2-2.9c0.2-0.8,2.3-0.8,5.5-1.1
				c1.6-0.2,3.4-0.4,5-1.1c0.8-0.3,1.5-0.7,2-1.3c0.1-0.1,0.2-0.3,0.4-0.4c0,0,0.2-0.2,0.4-0.5c0.2-0.3,0.3-0.6,0.4-1
				c0.5-1.4,1-2.8,1.6-4.3c1,0.9,2,1.7,3.1,2.6c0.6,0.4,1.2,0.9,1.7,1.3c0.4,0.3,0.8,0.5,1.1,0.7c0.5,0.3,1.1,0.7,1.6,0.9
				c1.1,0.6,2.1,1.1,3.2,1.6c2.1,1,4,1.7,5.7,2.3C397.3,488.3,399.6,489.1,399.5,489.9z"/>
		</g>
	</g>
</g>
<path id="XMLID_865_" class="st0" d="M443.1,469.8c-0.4-0.8,1.4-86.9,1.7-115.6c0.1-5.6,0.1-9.1,0-9.2"/>
<g id="XMLID_857_">
	<g id="XMLID_859_">
		<g id="XMLID_863_">
			<path id="XMLID_864_" d="M455,365.5c0,0.4-0.5,0.7-1.4,1c-0.2,0.1-0.5,0.1-0.8,0.1c-0.3,0-0.6,0-0.9,0c-0.3,0-0.7,0-1.1-0.1
				c-0.4-0.1-0.8-0.2-1.2-0.3c-1.7-0.5-3.6-1.8-5-3.7c-0.2-0.2-0.4-0.5-0.5-0.7c-0.1-0.2-0.3-0.4-0.4-0.7c0,0-0.1,0-0.1,0
				c0,0,0,0.1-0.1,0.1l0,0c0,0,0.1-0.2-0.2-0.1l-0.1,0c0,0,0,0-0.1,0.1c-0.2,0.2-0.4,0.4-0.5,0.5c-0.4,0.3-0.7,0.7-1.1,1
				c-0.7,0.6-1.4,1.1-2.1,1.5c-2.7,1.7-4.8,2.1-5.2,1.3c-0.4-0.7,0.7-2.2,2.3-4.5c0.4-0.6,0.9-1.2,1.3-1.8c0.2-0.3,0.5-0.7,0.7-1
				c0.4-0.5,0.7-1,1.1-1.5c0.3-0.4,0.5-0.8,0.8-1.2c0.3-0.4,0.6-0.9,0.8-1.4c0.6-1,1.2-2,1.8-3c1.2-1.9,2.4-3.9,3.6-6l0.6-1
				c0.1,2,0.1,4.1,0.2,6.1c0,0.9,0.1,1.8,0.1,2.7c0.1,0.7,0.1,1.5,0.2,2.2l0,0.5c0,0.1,0.1,0.3,0.1,0.4l0.2,0.8
				c0.2,0.5,0.2,1.1,0.4,1.5l0.1,0.1l0,0l0,0.1l0.1,0.1l0.1,0.3c0.1,0.2,0.2,0.3,0.2,0.5c0.6,1.3,1.5,2.2,2.3,3
				C453.3,363.9,455,364.7,455,365.5z"/>
		</g>
	</g>
</g>
<g id="XMLID_849_">
	<g id="XMLID_851_">
		<g id="XMLID_855_">
			<path id="XMLID_856_" d="M461.7,385.3c0,0.4-0.6,0.8-1.8,1c-1.2,0.3-3,0.3-5.3-0.3c-2.2-0.6-4.7-1.9-7-3.9c-1.1-1-2.2-2.3-3-3.6
				c-0.3-0.5-0.2-0.3-0.2-0.3c0,0,0,0,0,0c0,0,0,0,0,0l0,0c0,0,0-0.1-0.1,0c-0.5,0.6-1.1,1.1-1.6,1.7c-0.5,0.5-1.1,1-1.7,1.5
				c-2.2,1.9-4.6,3.3-6.7,4c-2.1,0.8-4,1-5.3,0.8c-1.3-0.1-2-0.6-2-1c0.1-0.8,2.3-1.4,5.4-3.6c1.5-1.1,3.2-2.5,4.9-4.3
				c0.4-0.4,0.9-0.9,1.3-1.4c0.4-0.5,0.9-1,1.3-1.5c0.9-1,1.8-2.3,2.7-3.6c0.9-1.2,1.9-2.5,2.8-3.8l0.6-0.7c0.6,1.7,1.2,3.6,1.8,5.2
				l0.4,1.2c0.2,0.4,0.3,0.7,0.5,1c0.3,0.6,0.8,1.5,0.8,1.6c0.7,1.2,1.4,2,2.1,3c1.5,1.7,3.1,3,4.6,3.9
				C459.2,383.9,461.7,384.4,461.7,385.3z"/>
		</g>
	</g>
</g>
<g id="XMLID_841_">
	<g id="XMLID_843_">
		<g id="XMLID_847_">
			<path id="XMLID_848_" d="M465.1,401.5c0,0.4-0.7,0.8-1.9,1c-0.3,0.1-0.7,0.1-1,0.2c-0.4,0-0.8,0-1.2,0c-0.4,0-0.9,0-1.4,0
				c-0.5,0-1-0.1-1.6-0.2c-2.2-0.3-4.9-1-7.7-2.3c-0.7-0.4-1.4-0.7-2.1-1.1c-0.7-0.4-1.4-0.9-2-1.4c-0.7-0.5-1.3-1-2-1.6
				c-0.3-0.3-0.6-0.6-1-0.9l-0.2-0.2c0,0,0,0,0,0c0,0,0,0,0,0c0,0,0,0,0,0c-0.3,0.3-0.6,0.5-0.9,0.8c-1.2,1-2.5,1.8-3.8,2.4
				c-2.6,1.3-5.2,1.8-7.3,1.8c-2.1,0-3.8-0.4-4.9-0.9c-1.1-0.5-1.6-1-1.5-1.4c0.2-0.8,2.5-0.8,5.8-1.7c1.6-0.5,3.5-1.3,5.3-2.5
				c0.9-0.6,1.8-1.3,2.7-2.1c0.2-0.2,0.4-0.4,0.7-0.7c0.6-0.5,1-1.1,1.5-1.6c1-1.1,1.9-2.2,2.9-3.3c0.9,1.2,1.8,2.6,2.7,3.7l0.8,0.9
				l0.4,0.4c0.1,0.1,0.1,0.1,0.2,0.2c0.3,0.2,0.5,0.5,0.7,0.7c0.5,0.5,1,0.9,1.5,1.4c0.5,0.5,1.1,0.8,1.6,1.2
				c0.5,0.4,1.1,0.7,1.6,1.1c2.1,1.4,4.2,2.3,6,3.1C462.5,399.9,465.1,400.6,465.1,401.5z"/>
		</g>
	</g>
</g>
<g id="XMLID_827_">
	<g id="XMLID_850_">
		<g id="XMLID_868_">
			<path id="XMLID_869_" d="M471.8,417.4c0.1,0.3-0.5,1.1-2.2,1.7c-1.6,0.6-4.2,1.1-7.3,0.7c-3.1-0.4-6.6-1.6-10.1-3.5
				c-1.8-0.9-3.5-2-5.3-3.3c-0.9-0.6-1.7-1.3-2.6-2l-0.6-0.5l-0.3-0.2l0,0l0,0c0,0,0,0,0,0c-0.8,0.4-1.6,0.9-2.4,1.3
				c-1,0.5-2,1-3,1.5c-2,1-4,1.7-5.9,2.5c-3.9,1.3-7.6,2.1-10.9,2.2c-3.3,0.1-6.1-0.8-7.6-2c-1.6-1.3-1.8-2.5-1.4-2.7
				c0.4-0.2,1.1,0.3,2.5,0.6c1.4,0.3,3.5,0.4,6.1-0.2c2.6-0.5,5.8-1.6,9.2-3.1c1.7-0.8,3.5-1.6,5.3-2.6c0.9-0.5,1.9-0.9,2.8-1.5
				c1.1-0.6,2.3-1.3,3.5-1.9c0.9-0.5,1.8-1,2.7-1.5c0.8,0.8,1.6,1.6,2.4,2.3l0.9,0.8l0.6,0.5c0.8,0.7,1.5,1.3,2.3,1.9
				c1.5,1.2,3,2.3,4.5,3.3c2.9,1.9,5.8,3.3,8.2,4.1c2.4,0.8,4.5,1,6,1.1C470.7,417,471.6,417,471.8,417.4z"/>
		</g>
	</g>
</g>
<g id="XMLID_778_">
	<g id="XMLID_870_">
		<g id="XMLID_874_">
			<path id="XMLID_875_" d="M474.5,433.8c0,0.8-3.5,1.6-9.2,1.1c-2.9-0.3-6.3-0.8-9.9-2c-1.8-0.6-3.7-1.3-5.6-2.2
				c-1-0.4-1.9-0.9-2.8-1.5c-0.5-0.3-0.9-0.6-1.4-0.8c-0.2-0.1-0.5-0.3-0.7-0.4c-0.1-0.1,0,0,0,0c0,0,0,0,0,0c0,0,0,0,0,0l0,0
				l-0.1,0.2l-0.1,0.1l-0.3,0.3l-0.6,0.7c-0.4,0.4-0.9,0.8-1.3,1.2c-1.9,1.4-3.9,2.2-5.8,2.7c-3.8,0.9-7,0.6-9.6,0.2
				c-5.2-0.9-8-2.6-7.8-3.3c0.2-0.8,3.3-0.6,8.1-0.8c2.4-0.1,5.2-0.4,7.9-1.3c1.3-0.5,2.6-1.1,3.6-2c0.3-0.2,0.5-0.5,0.7-0.7
				l0.3-0.4c0.1-0.1,0.1-0.1,0.2-0.2l0.3-0.5c0.2-0.4,0.4-0.7,0.6-1.1c0.2-0.5,0.4-1,0.6-1.5c0.4-1,0.8-2,1.1-2.9
				c0.7,0.6,1.4,1.2,2.2,1.8c0.7,0.6,1.5,1.1,2.2,1.7c0.4,0.3,0.9,0.6,1.3,0.9c0.2,0.1,0.4,0.3,0.6,0.4c0.4,0.3,0.8,0.5,1.2,0.8
				c0.8,0.5,1.7,1,2.5,1.4c1.7,0.9,3.3,1.6,4.9,2.3c3.2,1.4,6.2,2.3,8.8,3.1C471.1,432.3,474.5,432.9,474.5,433.8z"/>
		</g>
	</g>
</g>
<g id="XMLID_786_">
	<g id="XMLID_878_">
		<g id="XMLID_882_">
			<path id="XMLID_883_" d="M466.7,451.2c0,0.4-0.7,0.7-1.9,1.1c-1.3,0.4-3.1,0.6-5.4,0.6c-2.3-0.1-5.2-0.3-8.3-1.2
				c-1.6-0.5-3.2-1.1-4.8-2.2c-0.4-0.2-0.8-0.5-1.2-0.8c-0.4-0.3-0.8-0.6-1.2-0.9c-0.4-0.3-0.8-0.7-1.1-1.1l-0.3-0.3l-0.1-0.1l0,0
				l0,0l0,0c-0.1-0.1,0.1,0.1,0.1,0.1l0,0l0,0c0,0,0,0,0,0l0,0l0,0l0,0c0,0,0,0,0.1,0l0.1-0.1l0,0l-0.4,0.2c-0.5,0.3-1,0.5-1.5,0.8
				l-0.7,0.4l-0.8,0.3c-0.5,0.2-1,0.4-1.5,0.6c-1,0.4-2,0.5-3,0.8c-1,0.2-2,0.3-2.9,0.4c-3.8,0.3-7.1-0.3-9.7-1
				c-5.3-1.5-8-3.7-7.7-4.4c0.3-0.8,3.5-0.1,8.4,0.2c2.4,0.1,5.3,0.2,8.4-0.3c0.7-0.2,1.5-0.3,2.3-0.5c0.7-0.3,1.5-0.4,2.3-0.7
				c0.4-0.2,0.7-0.3,1.1-0.5l0.6-0.2l0.5-0.3c0.4-0.2,0.7-0.4,1.1-0.6l0.3-0.2l0,0l0.2-0.1l0.2-0.2l0.3-0.2l1.2-0.9l0.1-0.1
				c0.8,0.2,1.6,0.4,2.4,0.7c0.8,0.2,1.6,0.5,2.4,0.7l0.7,1.1l0.1,0.1l0.1,0.1l0.1,0.1l0.2,0.2c0.2,0.3,0.5,0.5,0.7,0.7
				c0.2,0.2,0.5,0.4,0.8,0.7c0.2,0.2,0.5,0.4,0.8,0.6c1.1,0.8,2.3,1.4,3.5,2c2.5,1.1,4.9,1.7,6.9,2.2c2.1,0.5,3.8,0.9,5,1.2
				C466,450.4,466.7,450.8,466.7,451.2z"/>
		</g>
	</g>
</g>
</svg>
