<?xml version="1.0" encoding="utf-8"?>
<!-- Generator: Adobe Illustrator 19.0.0, SVG Export Plug-In . SVG Version: 6.00 Build 0)  -->
<svg version="1.1" id="Layer_2" xmlns="http://www.w3.org/2000/svg" xmlns:xlink="http://www.w3.org/1999/xlink" x="0px" y="0px"
       viewBox="0 0 612 792" style="enable-background:new 0 0 612 792;" xml:space="preserve">

<style type="text/css">
      .st0{fill:none;stroke:#FFD93C;stroke-miterlimit:10;}
      .st1{fill:#FFD93C;}
      .text{
            font-size: 100px;
            color: #bc2e1e;
      }

</style>

<text x='120' y='350' width="500" style="text-wrap:10px;" font-family="American Typewriter, serif" class='text'>
      <tspan id='text1' x="220" y="310" class="st0 st1">AL</tspan><tspan x="220" y="390" id='text2' class="st0 st1">BA</tspan><tspan id='text3' x="220" y="470" class="st0 st1">MA</tspan>
</text>


    <polygon id="XMLID_4_" points="303.3,226 301.8,230.8 296.3,232.2 302.3,234.3 304,239.9 306,233.3 311.8,232.5 305.4,229.9 
	303.6,224.8 "/>
<polygon id="XMLID_5_" points="265.4,226.4 270.9,227.7 265.4,229.2 264.2,234.6 262.7,229.4 257.3,227.9 262.3,226.1 264,221 "/>
<polygon id="XMLID_7_" points="268.8,247.2 274.2,248.5 268.7,250.1 267.5,255.4 266,250.2 260.6,248.7 265.6,247 267.3,241.8 "/>
<polygon id="XMLID_8_" points="297.7,281.5 303.1,282.8 297.7,284.4 296.5,289.8 295,284.6 289.5,283.1 294.5,281.3 296.2,276.2 "/>
<polygon id="XMLID_11_" points="292.7,310.5 298.1,311.8 292.7,313.3 291.5,318.7 290,313.5 284.5,312 289.5,310.2 291.2,305.1 "/>
<polygon id="XMLID_12_" points="264,369.5 269.5,370.8 264,372.3 262.8,377.7 261.3,372.5 255.9,371 260.9,369.2 262.6,364.1 "/>
<polygon id="XMLID_13_" points="219.2,366.7 224.7,368 219.2,369.6 218,374.9 216.5,369.7 211.1,368.2 216.1,366.5 217.8,361.3 "/>
<polygon id="XMLID_14_" points="260,387.8 265.4,389.1 260,390.6 258.8,396 257.3,390.8 251.8,389.3 256.9,387.5 258.5,382.4 "/>
<polygon id="XMLID_15_" points="313.2,404.5 318.6,405.8 313.2,407.3 312,412.7 310.5,407.5 305,406 310,404.2 311.7,399.1 "/>
<polygon id="XMLID_16_" points="320,386 325.4,387.3 320,388.9 318.8,394.2 317.3,389 311.8,387.5 316.8,385.8 318.5,380.6 "/>
<polygon id="XMLID_17_" points="380.4,379.2 385.8,380.5 380.3,382.1 379.1,387.4 377.6,382.2 372.2,380.7 377.2,379 378.9,373.8 
	"/>
<polygon id="XMLID_26_" points="326.8,348.8 332.2,350.1 326.8,351.7 325.6,357 324.1,351.9 318.6,350.4 323.6,348.6 325.3,343.4 
	"/>
<polygon id="XMLID_18_" points="341.7,447.1 347.1,448.5 341.7,450 340.5,455.4 339,450.2 333.5,448.7 338.5,446.9 340.2,441.8 "/>
<polygon id="XMLID_19_" points="309.7,426.8 315.1,428.1 309.7,429.7 308.5,435 307,429.9 301.5,428.4 306.5,426.6 308.2,421.4 "/>
<polygon id="XMLID_20_" points="257.6,479.6 264.5,481.2 257.6,483.2 256,490 254.1,483.4 247.2,481.5 253.6,479.2 255.7,472.7 "/>
<polygon id="XMLID_21_" points="248.4,473.1 251.8,474 248.4,475 247.6,478.4 246.7,475.1 243.2,474.1 246.4,473 247.4,469.7 "/>
<polygon id="XMLID_22_" points="248.4,487.5 251.8,488.3 248.4,489.3 247.6,492.7 246.7,489.4 243.2,488.5 246.4,487.4 247.4,484.1 
	"/>
<polygon id="XMLID_24_" points="254.6,497.4 257.1,498.1 254.5,498.8 254,501.3 253.3,498.9 250.7,498.2 253.1,497.3 253.9,494.9 
	"/>
<polygon id="XMLID_25_" points="266.1,489.3 268.7,490 266.1,490.7 265.5,493.2 264.8,490.8 262.2,490.1 264.6,489.2 265.4,486.8 
	"/>
<polygon id="XMLID_23_" points="234.1,499.6 237.5,500.4 234.1,501.4 233.3,504.8 232.3,501.5 228.9,500.5 232.1,499.4 233.1,496.1 
	"/>
<polygon id="XMLID_10_" points="356.7,274.7 362.1,276 356.7,277.6 355.5,283 354,277.8 348.5,276.3 353.5,274.5 355.2,269.4 "/>
<polygon id="XMLID_9_" points="312.2,241.7 317.7,243 312.2,244.6 311,249.9 309.5,244.7 304.1,243.2 309.1,241.5 310.8,236.3 "/>

</svg>
