<?xml version="1.0" encoding="utf-8"?>
<!-- Generator: Adobe Illustrator 19.0.0, SVG Export Plug-In . SVG Version: 6.00 Build 0)  -->
<svg version="1.1" id="Layer_2" xmlns="http://www.w3.org/2000/svg" xmlns:xlink="http://www.w3.org/1999/xlink" x="0px" y="0px"
	 viewBox="0 0 612 792" style="enable-background:new 0 0 612 792;" xml:space="preserve">
<style type="text/css">
	
	.st1{font-family:'CopperplateGothic-Bold';}
	.st2{font-size:92.0977px;}
	.st3{font-size:24px;}

	.text{
		font-size: 50px;
		text-transform: uppercase;
	}

	#XMLID_5_For_Hide{
		display: none;
	}

</style>
<path id="XMLID_5_" class="st0" d="M131,321.9c0,0,44.6-110.4,183.6-110.7c0,0,113.3-5,176,114.3H367.5L355,250.7l-104-3.5l4.4,5.4
	l-13,71L131,321.9z"/>
	<path id="XMLID_5_For_Hide"  class="st0" d="M131,310.9c0,0,44.6-110.4,183.6-110.7c0,0,113.3-5,176,114.3H367.5L355,250.7l-104-3.5l4.4,5.4
	l-13,71L131,321.9z"/>
<path id="XMLID_6_" class="st0" d="M129.1,325.6l113,1.3c0,0-2.8,10.3-3.2,21.3H120.2C120.2,348.2,121.6,340.5,129.1,325.6z"/>
<path id="XMLID_4_" class="st0" d="M119,351.7l119.3,1.3l-1.3,20l-123.3-1.3C113.7,371.7,114.2,366,119,351.7z"/>
<path id="XMLID_7_" class="st0" d="M113.7,377.2l122.5,1.3v18.3H110.5C110.5,396.7,110.5,387.2,113.7,377.2z"/>
<rect id="XMLID_8_" x="110.5" y="403.2" class="st0" width="125.8" height="17.3"/>
<path id="XMLID_9_" class="st0" d="M491.7,328.7c0,0,6,10.5,8,22.5h-122c0,0-0.5-4.5-7.3-11.3c0,0-3-5.2-3.3-11.3H491.7z"/>
<path id="XMLID_11_" class="st0" d="M378.2,353.7l121.5,1.5c0,0,3-0.5,5.8,19.5h-134c0,0,0.9-9.5,10.4-14.5
	C381.9,360.2,376.2,358.6,378.2,353.7z"/>
<path id="XMLID_12_" class="st0" d="M371.5,379.7l135,1c0,0,2.3,8.7,0.8,17.8l-133.5-0.7c0,0,3-4.5,2-11.3
	C375.8,386.6,374.6,381.6,371.5,379.7z"/>
<path id="XMLID_10_" class="st0" d="M507.8,406.6c0,0,1.8,7,0,16.3L379,421.7l-104.3-1.2l-6-5.8c0,0,2.8-4.8,9-4.5s3-0.5,29.8,1.6
	h70.8c0,0-6.8-6.1-3.5-6.9L507.8,406.6z"/>
<path id="XMLID_14_" class="st0" d="M110.5,429.7l3.3,14l391.8,3.5l2.3-14.7L278,429.7c0,0,2,9.8-7.7,10.5c-9.7,0.7-15,1-15,1
	l-0.3-2.8h6.3l-3.7-8.8h-8.3c0,0,0.3,10.2-5.7,4.5l-5.4,0.3v-4.8H110.5z"/>
<path id="XMLID_15_" class="st0" d="M98,530.7h131v14c0,0-99,0.5-131,0V530.7z"/>
<rect id="XMLID_13_" x="383.5" y="533.7" class="st0" width="135" height="14"/>
<g id="XMLID_18_">
	<g id="XMLID_26_">
	<text x='30' width="500">
      <textPath y='20' font-family="American Typewriter, serif" fill='black' class='text' id='text1' xlink:href="#XMLID_5_For_Hide">
        HEART OF DIXIE
      </textPath>
    </text>
	</g>
</g>
<text id="XMLID_21_" transform="matrix(0.9173 0 0 1 102.9698 518.0018)"  x="50px" class="st1 st2">Alabama</text>
<text id="XMLID_22_" transform="matrix(1 0 0 1 245.9688 544.9697)" x="20px" class="st1 st3">estd.1819</text>
</svg>
