<svg width="383.8249267578125px" height="122px" xmlns="http://www.w3.org/2000/svg" viewBox="58.08753662109376 14 383.8249267578125 122" style="background: rgba(0, 0, 0, 0);" preserveAspectRatio="xMidYMid"><defs>
  <filter id="editing-scratch" x="-100%" y="-100%" width="300%" height="300%">
    <!-- COLOR -->
    <feFlood flood-color="#ddd" flood-opacity="0.75" result="COLOR-blu"></feFlood>
    <feFlood flood-color="#666" flood-opacity="0.4" result="COLOR-red"></feFlood>
    <!-- COLOR END -->

    <!-- Texture -->
    <feTurbulence baseFrequency=".05" type="fractalNoise" numOctaves="3" seed="0" result="Texture_10"></feTurbulence>
    <feColorMatrix type="matrix" values="0 0 0 0 0,
    0 0 0 0 0,
    0 0 0 0 0,
    0 0 0 -2.1 1.1" in="Texture_10" result="Texture_20"></feColorMatrix>

    <feColorMatrix result="Texture_30" type="matrix" values="0 0 0 0 0,
    0 0 0 0 0,
    0 0 0 0 0,
    0 0 0 -1.7 1.8" in="Texture_10"></feColorMatrix>
    <!-- Texture -->

    <!-- FILL -->
    <feOffset dx="-3" dy="4" in="SourceAlpha" result="FILL_10"></feOffset>
    <feDisplacementMap scale="17" in="FILL_10" in2="Texture_10" result="FILL_20"></feDisplacementMap>
    <feComposite operator="in" in="Texture_30" in2="FILL_20" result="FILL_40"></feComposite>
    <feComposite operator="in" in="COLOR-blu" in2="FILL_40" result="FILL_50"></feComposite>
    <!-- FILL END-->

    <!-- OUTLINE -->
    <feMorphology operator="dilate" radius="3" in="SourceGraphic" result="OUTLINE_10"></feMorphology>
    <feComposite operator="out" in="OUTLINE_10" in2="SourceGraphic" result="OUTLINE_20"></feComposite>
    <feDisplacementMap scale="7" in="OUTLINE_20" in2="Texture_10" result="OUTLINE_30"></feDisplacementMap>
    <feComposite operator="arithmetic" k2="-1" k3="1" in="Texture_20" in2="OUTLINE_30" result="OUTLINE_40"></feComposite>
    <!-- OUTLINE END-->

    <!-- BEVEL OUTLINE -->
    <feConvolveMatrix order="8,8" divisor="1" kernelMatrix="1 0 0 0 0 0 0 0 0 1 0 0 0 0 0 0 0 0 1 0 0 0 0 0 0 0 0 1 0 0 0 0 0 0 0 0 1 0 0 0 0 0 0 0 0 1 0 0 0 0 0 0 0 0 1 0 0 0 0 0 0 0 0 1 " in="SourceGraphic" result="BEVEL_10"></feConvolveMatrix>
    <feMorphology operator="dilate" radius="2" in="BEVEL_10" result="BEVEL_20"></feMorphology>
    <feComposite operator="out" in="BEVEL_20" in2="BEVEL_10" result="BEVEL_30"></feComposite>
    <feDisplacementMap scale="7" in="BEVEL_30" in2="Texture_10" result="BEVEL_40"></feDisplacementMap>
    <feComposite operator="arithmetic" k2="-1" k3="1" in="Texture_20" in2="BEVEL_40" result="BEVEL_50"></feComposite>
    <feOffset dx="-7" dy="-7" in="BEVEL_50" result="BEVEL_60"></feOffset>
    <feComposite operator="out" in="BEVEL_60" in2="OUTLINE_10" result="BEVEL_70"></feComposite>
    <!-- BEVEL OUTLINE END -->

    <!-- BEVEL FILL -->
    <feOffset dx="-9" dy="-9" in="BEVEL_10" result="BEVEL-FILL_10"></feOffset>
    <feComposite operator="out" in="BEVEL-FILL_10" in2="OUTLINE_10" result="BEVEL-FILL_20"></feComposite>
    <feDisplacementMap scale="17" in="BEVEL-FILL_20" in2="Texture_10" result="BEVEL-FILL_30"></feDisplacementMap>
    <feComposite operator="in" in="COLOR-red" in2="BEVEL-FILL_30" result="BEVEL-FILL_50"></feComposite> <!-- -->
    <!-- BEVEL FILL END-->

    <feMerge result="merge2">
     <feMergeNode in="BEVEL-FILL_50"></feMergeNode>
     <feMergeNode in="BEVEL_70"></feMergeNode>
     <feMergeNode in="FILL_50"></feMergeNode>
      <feMergeNode in="OUTLINE_40"></feMergeNode>
    </feMerge>
  </filter>
</defs>
<g filter="url(#editing-scratch)"><g transform="translate(116.11497890949249, 104.47000122070312)"><path d="M48.83-10.69L48.83-10.69Q44.61-4.86 40.54-1.79L40.54-1.79L40.54-1.79Q36.48 1.28 32.29 1.28L32.29 1.28L32.29 1.28Q28.10 1.28 26.62 0.45L26.62 0.45L26.62-13.63L26.62-13.63Q22.98-3.90 16.45-0.13L16.45-0.13L16.45-0.13Q14.08 1.28 11.84 1.28L11.84 1.28L11.84 1.28Q7.55 1.28 5.70 0.45L5.70 0.45L5.70 0.45Q5.25-14.21 4.86-18.27L4.86-18.27L4.86-18.27Q4.48-22.34 4.16-24.83L4.16-24.83L4.16-24.83Q3.52-29.82 1.34-31.87L1.34-31.87L1.34-31.87Q4.10-33.92 7.94-33.92L7.94-33.92L7.94-33.92Q15.36-33.92 16.38-24.70L16.38-24.70L16.38-24.70Q16.64-22.53 16.64-20.22L16.64-20.22L16.64-20.22Q16.64-16.77 15.87-4.74L15.87-4.74L15.87-4.74Q17.41-5.44 19.04-7.97L19.04-7.97L19.04-7.97Q20.67-10.50 22.02-13.95L22.02-13.95L22.02-13.95Q25.02-21.95 25.02-28.86L25.02-28.86L25.02-28.86Q25.02-29.95 24.74-31.10L24.74-31.10L24.74-31.10Q24.45-32.26 24.13-32.58L24.13-32.58L24.13-32.58Q26.37-33.92 29.79-33.92L29.79-33.92L29.79-33.92Q33.22-33.92 34.85-31.58L34.85-31.58L34.85-31.58Q36.48-29.25 36.93-24.96L36.93-24.96L36.93-24.96Q37.44-19.52 37.44-16.26L37.44-16.26L37.44-16.26Q37.44-11.71 36.99-4.99L36.99-4.99L36.99-4.99Q40.19-7.30 42.82-14.85L42.82-14.85L42.82-14.85Q45.44-22.40 45.44-27.78L45.44-27.78L45.44-27.78Q45.44-30.14 45.06-31.55L45.06-31.55L45.06-31.55Q47.17-33.92 50.82-33.92L50.82-33.92L50.82-33.92Q53.06-33.92 54.69-32.70L54.69-32.70L54.69-32.70Q56.32-31.49 56.32-29.22L56.32-29.22L56.32-29.22Q56.32-26.94 55.65-24.51L55.65-24.51L55.65-24.51Q54.98-22.08 53.89-19.58L53.89-19.58L53.89-19.58Q51.78-14.59 48.83-10.69L48.83-10.69ZM83.97-10.82L83.97-10.82L83.97-10.82Q85.57-9.73 85.57-7.33L85.57-7.33L85.57-7.33Q85.57-4.93 84.35-3.39L84.35-3.39L84.35-3.39Q83.14-1.86 81.15-0.83L81.15-0.83L81.15-0.83Q77.06 1.28 72.64 1.28L72.64 1.28L72.64 1.28Q68.22 1.28 65.63 0.32L65.63 0.32L65.63 0.32Q63.04-0.64 61.31-2.43L61.31-2.43L61.31-2.43Q57.92-5.82 57.92-12.03L57.92-12.03L57.92-12.03Q57.92-21.70 63.17-27.58L63.17-27.58L63.17-27.58Q68.80-33.92 78.59-33.92L78.59-33.92L78.59-33.92Q84.67-33.92 87.68-31.36L87.68-31.36L87.68-31.36Q89.92-29.44 89.92-26.30L89.92-26.30L89.92-26.30Q89.92-15.04 70.46-15.04L70.46-15.04L70.46-15.04Q70.21-13.38 70.21-11.97L70.21-11.97L70.21-11.97Q70.21-9.02 71.52-7.90L71.52-7.90L71.52-7.90Q72.83-6.78 75.26-6.78L75.26-6.78L75.26-6.78Q77.70-6.78 80.29-7.90L80.29-7.90L80.29-7.90Q82.88-9.02 83.97-10.82ZM70.91-17.79L70.91-17.79L70.91-17.79Q75.46-17.79 78.08-20.61L78.08-20.61L78.08-20.61Q80.70-23.30 80.70-27.58L80.70-27.58L80.70-27.58Q80.70-29.06 80.16-29.86L80.16-29.86L80.16-29.86Q79.62-30.66 78.53-30.66L78.53-30.66L78.53-30.66Q77.44-30.66 76.51-30.24L76.51-30.24L76.51-30.24Q75.58-29.82 74.62-28.42L74.62-28.42L74.62-28.42Q72.26-25.22 70.91-17.79ZM91.26-3.07L91.26-3.07L99.20-44.80L112.19-46.08L110.21-36.29L110.21-36.29Q109.50-33.28 108.61-31.17L108.61-31.17L108.61-31.17Q110.02-32.96 113.09-33.66L113.09-33.66L113.09-33.66Q113.98-33.92 115.07-33.92L115.07-33.92L115.07-33.92Q121.02-33.92 124.29-30.30L124.29-30.30L124.29-30.30Q127.55-26.69 127.55-19.71L127.55-19.71L127.55-19.71Q127.55-10.62 122.37-4.93L122.37-4.93L122.37-4.93Q116.80 1.28 106.69 1.28L106.69 1.28L106.69 1.28Q99.71 1.28 94.46-1.02L94.46-1.02L94.46-1.02Q92.61-1.86 91.26-3.07ZM107.52-22.40L104.13-3.65L104.13-3.65Q105.47-2.50 107.14-2.50L107.14-2.50L107.14-2.50Q108.80-2.50 109.76-3.14L109.76-3.14L109.76-3.14Q110.72-3.78 111.42-5.06L111.42-5.06L111.42-5.06Q113.34-8.51 114.88-19.07L114.88-19.07L114.88-19.07Q115.33-22.08 115.33-25.09L115.33-25.09L115.33-25.09Q115.33-28.10 114.66-29.06L114.66-29.06L114.66-29.06Q113.98-30.02 112.70-30.02L112.70-30.02L112.70-30.02Q108.80-30.02 107.52-22.40L107.52-22.40ZM130.75-0.32L130.75-0.32L138.82-42.24L138.82-42.24Q146.37-42.88 151.23-42.88L151.23-42.88L151.23-42.88Q156.10-42.88 159.23-42.46L159.23-42.46L159.23-42.46Q162.37-42.05 164.48-40.96L164.48-40.96L164.48-40.96Q168.70-38.91 168.70-33.28L168.70-33.28L168.70-33.28Q168.70-30.02 165.89-27.26L165.89-27.26L165.89-27.26Q163.26-24.77 160.38-24.19L160.38-24.19L160.38-24.19Q163.46-23.68 165.63-21.38L165.63-21.38L165.63-21.38Q167.94-18.94 167.94-15.17L167.94-15.17L167.94-15.17Q167.94-7.87 162.50-3.62L162.50-3.62L162.50-3.62Q157.06 0.64 146.37 0.64L146.37 0.64L146.37 0.64Q139.01 0.64 130.75-0.32ZM148.16-20.61L144.96-4.03L144.96-4.03Q145.54-3.97 145.66-3.97L145.66-3.97L146.24-3.97L146.24-3.97Q151.49-3.97 153.73-7.42L153.73-7.42L153.73-7.42Q155.39-10.11 155.39-15.04L155.39-15.04L155.39-15.04Q155.39-17.66 153.70-19.07L153.70-19.07L153.70-19.07Q152-20.48 148.16-20.61L148.16-20.61ZM157.89-33.22L157.89-33.22L157.89-33.22Q157.89-38.53 152.77-38.53L152.77-38.53L152.19-38.53L152.19-38.53Q151.94-38.53 151.55-38.46L151.55-38.46L148.99-24.96L149.63-24.96L149.63-24.96Q157.89-25.15 157.89-33.22ZM192.51-7.23L192.51-7.23L192.51-7.23Q189.18-3.78 183.10-3.78L183.10-3.78L183.10-3.78Q175.49-3.78 173.89-9.34L173.89-9.34L173.89-9.34Q173.38-11.01 173.38-12.86L173.38-12.86L173.38-12.86Q173.38-14.72 173.76-16.64L173.76-16.64L176.77-32.64L189.76-33.92L186.24-15.30L186.24-15.30Q186.11-14.46 185.92-13.57L185.92-13.57L185.92-13.57Q185.73-12.67 185.73-11.74L185.73-11.74L185.73-11.74Q185.73-10.82 186.05-10.21L186.05-10.21L186.05-10.21Q186.37-9.60 186.82-9.22L186.82-9.22L186.82-9.22Q187.58-8.70 188.96-8.70L188.96-8.70L188.96-8.70Q190.34-8.70 191.52-10.37L191.52-10.37L191.52-10.37Q192.70-12.03 193.28-14.91L193.28-14.91L196.80-32.64L209.41-33.92L204.61-8.77L204.61-8.77Q202.24 3.52 197.38 8.38L197.38 8.38L197.38 8.38Q194.88 10.88 191.65 11.87L191.65 11.87L191.65 11.87Q188.42 12.86 184.26 12.86L184.26 12.86L184.26 12.86Q177.54 12.86 173.70 10.75L173.70 10.75L173.70 10.75Q169.86 8.64 169.86 5.12L169.86 5.12L169.86 5.12Q169.86 2.50 171.84 0.99L171.84 0.99L171.84 0.99Q173.82-0.51 176.90-0.51L176.90-0.51L176.90-0.51Q179.58-0.51 181.63 0.64L181.63 0.64L181.63 0.64Q182.85 1.34 183.42 2.24L183.42 2.24L183.42 2.24Q181.95 3.52 181.95 5.63L181.95 5.63L181.95 5.63Q181.95 8.45 184.51 8.45L184.51 8.45L184.51 8.45Q188.74 8.45 191.17-1.28L191.17-1.28L191.17-1.28Q191.87-4.16 192.51-7.23ZM212.74-6.40L212.74-6.40L212.74-6.40Q212.74-8.13 213.63-12.48L213.63-12.48L217.02-29.76L213.25-29.76L213.50-31.68L213.50-31.68Q221.18-33.98 228.61-39.62L228.61-39.62L231.68-39.62L230.14-32.64L235.14-32.64L234.56-29.76L229.63-29.76L226.37-12.48L226.37-12.48Q225.54-8.51 225.54-7.17L225.54-7.17L225.54-7.17Q225.54-4.10 228.22-3.46L228.22-3.46L228.22-3.46Q227.58-1.28 225.28 0L225.28 0L225.28 0Q222.98 1.28 219.71 1.28L219.71 1.28L219.71 1.28Q216.45 1.28 214.59-0.77L214.59-0.77L214.59-0.77Q212.74-2.82 212.74-6.40ZM260.48-10.82L260.48-10.82L260.48-10.82Q262.08-9.73 262.08-7.33L262.08-7.33L262.08-7.33Q262.08-4.93 260.86-3.39L260.86-3.39L260.86-3.39Q259.65-1.86 257.66-0.83L257.66-0.83L257.66-0.83Q253.57 1.28 249.15 1.28L249.15 1.28L249.15 1.28Q244.74 1.28 242.14 0.32L242.14 0.32L242.14 0.32Q239.55-0.64 237.82-2.43L237.82-2.43L237.82-2.43Q234.43-5.82 234.43-12.03L234.43-12.03L234.43-12.03Q234.43-21.70 239.68-27.58L239.68-27.58L239.68-27.58Q245.31-33.92 255.10-33.92L255.10-33.92L255.10-33.92Q261.18-33.92 264.19-31.36L264.19-31.36L264.19-31.36Q266.43-29.44 266.43-26.30L266.43-26.30L266.43-26.30Q266.43-15.04 246.98-15.04L246.98-15.04L246.98-15.04Q246.72-13.38 246.72-11.97L246.72-11.97L246.72-11.97Q246.72-9.02 248.03-7.90L248.03-7.90L248.03-7.90Q249.34-6.78 251.78-6.78L251.78-6.78L251.78-6.78Q254.21-6.78 256.80-7.90L256.80-7.90L256.80-7.90Q259.39-9.02 260.48-10.82ZM247.42-17.79L247.42-17.79L247.42-17.79Q251.97-17.79 254.59-20.61L254.59-20.61L254.59-20.61Q257.22-23.30 257.22-27.58L257.22-27.58L257.22-27.58Q257.22-29.06 256.67-29.86L256.67-29.86L256.67-29.86Q256.13-30.66 255.04-30.66L255.04-30.66L255.04-30.66Q253.95-30.66 253.02-30.24L253.02-30.24L253.02-30.24Q252.10-29.82 251.14-28.42L251.14-28.42L251.14-28.42Q248.77-25.22 247.42-17.79Z" fill="#000"></path></g></g><style>text {
  font-size: 64px;
  font-family: Arial Black;
  dominant-baseline: central;
  text-anchor: middle;
}</style></svg>