<?xml version="1.0" encoding="utf-8" ?>
<!-- Generator: Adobe Illustrator 19.0.0, SVG Export Plug-In . SVG Version: 6.00 Build 0)  -->
<svg id="#svg"  xmlns:xlink="http://www.w3.org/1999/xlink" version="1.1" id="Layer_2" x="0px" y="0px"
	 viewBox="0 0 612 792" style="enable-background:new 0 0 612 792;" xml:space="preserve">

<style type="text/css">
	.st0{stroke:#FFD93C;stroke-miterlimit:10;}
	.text{
		font-size: 60px;
		color: #bc2e1e;
  text-shadow:
    0 1px 0px #378ab4,
    1px 0 0px #5dabcd,
    1px 2px 1px #378ab4,
    2px 1px 1px #5dabcd,
    2px 3px 2px #378ab4,
    3px 2px 2px #5dabcd,
    3px 4px 2px #378ab4,
    4px 3px 3px #5dabcd,
    4px 5px 3px #378ab4,
    5px 4px 2px #5dabcd,
    5px 6px 2px #378ab4,
    6px 5px 2px #5dabcd,
    6px 7px 1px #378ab4,
    7px 6px 1px #5dabcd,
    7px 8px 0px #378ab4,
    8px 7px 0px #5dabcd;
    font-family: 'Brush Script MT', cursive;
	}
</style>
<path id="XMLID_5_" class="st0" d="M168.2,448.9"/>
<path id="XMLID_4_" class="st0" d="M407.9,425.3"/>
<path id="XMLID_13_" class="st0" d="M415.5,414.3c0.6,2.3,1.2,6-1.4,7.4"/>
<path id="XMLID_7_" class="st1" d="M165.1,406.6C167,398,169,389,174,381c75-3,150,0,225,0c7,8,10,18,14.4,27.4
	c-2.3-0.3-1.6-4.5,0,0C407,408,400,408,394,408c-75,1-151-1-225.8-1.3L165.1,406.6z"/>
<path id="XMLID_10_" class="st1" d="M161.6,441.2c-1.4-4.2-0.7-19.4,3.5-29.2c75-3,175.4,2.3,250.4,2.3c1.7,8.2,0.5,21-5.6,28.8
	c-2.3-0.3-1.6-4.5,0,0c-6.4-0.4-13.4-0.4-19.4-0.4c-75,1-151-1-225.8-1.3L161.6,441.2z"/>
<path id="XMLID_8_" class="st1" d="M207.5,341.4c17.5-12.8,38.2-21.3,59.7-24.2c22.4-3,45.6,0,66.6,8.3
	c11.6,4.6,22.6,10.8,32.5,18.5l-161-1.1L207.5,341.4z"/>
<path id="XMLID_9_" class="st1" d="M178.2,372.8c5.7-9.2,12.8-17.5,20.8-24.7l174.5,1.6c8.5,7.3,16.1,15.7,22.5,24.9l0.9,1.7
	l-220.5-2L178.2,372.8z"/>

	<text x='130' y='450' width="500" font-family="American Typewriter, serif" fill='black' class='text' id='text1'>
        ALABAMA
    </text>
</svg>
